<svg width="69" height="17" viewBox="0 0 69 17" fill="none" xmlns="http://www.w3.org/2000/svg">
<path d="M68.9159 10.9475H63.2576V10.0107H68.9159V10.9475Z" fill="#B3B3B3"/>
<path d="M68.9159 5.34766V6.27606H68.4118C68.8025 6.60794 68.9999 7.04903 68.9999 7.60356C68.9999 8.01105 68.8865 8.35552 68.6638 8.63699C68.437 8.91845 68.1262 9.06128 67.7229 9.06128C67.2818 9.06128 66.95 8.91005 66.7231 8.60338C66.4963 8.29671 66.3829 7.89762 66.3829 7.40191C66.3829 7.00282 66.4417 6.62474 66.5551 6.27186H66.4795C66.1938 6.27186 65.9796 6.36008 65.8284 6.53232C65.6772 6.70456 65.6016 6.95661 65.6016 7.28008C65.6016 7.65397 65.6856 8.04045 65.8578 8.45215L65.1059 8.7084C64.879 8.20009 64.7656 7.68337 64.7656 7.14986C64.7656 6.55752 64.9169 6.10802 65.2151 5.80556C65.5133 5.50309 65.9418 5.35186 66.4921 5.35186H68.9201L68.9159 5.34766ZM67.4372 6.25506H67.2062C67.097 6.53232 67.0424 6.84739 67.0424 7.19187C67.0424 7.48593 67.1012 7.71698 67.2146 7.88082C67.328 8.04465 67.4877 8.12867 67.6935 8.12867C67.8783 8.12867 68.0253 8.05306 68.1346 7.90182C68.2438 7.75059 68.2984 7.56155 68.2984 7.3347C68.2984 7.01963 68.2186 6.75917 68.0589 6.55752C67.8993 6.35168 67.6935 6.25086 67.4372 6.25086V6.25506Z" fill="#B3B3B3"/>
<path d="M68.9999 1.90722C68.9999 2.47015 68.7605 2.93225 68.2774 3.29353H68.9117V4.23034H63.2534V3.29353H65.5008C64.9883 2.93225 64.7321 2.47015 64.7321 1.90722C64.7321 1.39051 64.9253 0.94521 65.3117 0.567126C65.6982 0.189042 66.2191 0 66.8744 0C67.5297 0 68.038 0.189042 68.4202 0.567126C68.8067 0.94521 68.9999 1.39051 68.9999 1.90722ZM68.185 2.12567C68.185 1.7938 68.0632 1.51654 67.8195 1.29389C67.5759 1.06704 67.2566 0.957812 66.8576 0.957812C66.4585 0.957812 66.1561 1.07124 65.9124 1.29809C65.6688 1.52494 65.547 1.8022 65.547 2.12567C65.547 2.44914 65.673 2.73061 65.9208 2.96586C66.1687 3.20111 66.4879 3.31874 66.8744 3.31874C67.2608 3.31874 67.5717 3.20111 67.8153 2.96586C68.059 2.73061 68.185 2.44914 68.185 2.12567Z" fill="#B3B3B3"/>
<path d="M0 16.413V13.8252H0.453671V14.1571C0.630099 13.9092 0.852733 13.7832 1.12578 13.7832C1.37782 13.7832 1.59205 13.8756 1.77688 14.0647C1.96171 14.2495 2.04992 14.5058 2.04992 14.8208C2.04992 15.1359 1.95751 15.3838 1.77688 15.5728C1.59625 15.7576 1.37782 15.8543 1.12578 15.8543C0.852733 15.8543 0.630099 15.7366 0.453671 15.5056V16.4172H0V16.413ZM1.02076 15.4594C1.18038 15.4594 1.31481 15.4006 1.42402 15.2829C1.53324 15.1653 1.58785 15.0099 1.58785 14.8166C1.58785 14.6234 1.53324 14.4764 1.42402 14.3587C1.31481 14.2411 1.18038 14.1823 1.02076 14.1823C0.861135 14.1823 0.726714 14.2411 0.613296 14.3629C0.499878 14.4848 0.441069 14.636 0.441069 14.825C0.441069 15.0141 0.499878 15.1611 0.613296 15.2829C0.726714 15.4006 0.865335 15.4636 1.02076 15.4636V15.4594Z" fill="#B3B3B3"/>
<path d="M4.5618 15.8083H4.11233V15.5647C3.9527 15.7537 3.73847 15.8503 3.46963 15.8503C3.2722 15.8503 3.10417 15.7957 2.96975 15.6865C2.83533 15.5773 2.76392 15.4261 2.76392 15.2286C2.76392 15.0144 2.83953 14.8547 2.98655 14.7455C3.13357 14.6363 3.3268 14.5817 3.57044 14.5817C3.76367 14.5817 3.9485 14.6111 4.12073 14.6657V14.6279C4.12073 14.4892 4.07872 14.3842 3.99471 14.3128C3.9107 14.2414 3.78888 14.2036 3.63345 14.2036C3.45282 14.2036 3.26379 14.2456 3.06636 14.3296L2.94454 13.9641C3.18818 13.8549 3.44022 13.8003 3.70066 13.8003C3.99051 13.8003 4.20474 13.8717 4.35176 14.0187C4.49879 14.1658 4.5702 14.3716 4.5702 14.6405V15.8167L4.5618 15.8083ZM4.12073 15.09V14.9766C3.98631 14.9219 3.83508 14.8967 3.66706 14.8967C3.52423 14.8967 3.41082 14.9261 3.331 14.9808C3.25119 15.0354 3.20919 15.1152 3.20919 15.2118C3.20919 15.3 3.24699 15.3714 3.3184 15.4261C3.38981 15.4807 3.48223 15.5059 3.59145 15.5059C3.74267 15.5059 3.86869 15.4681 3.9695 15.3882C4.07032 15.3126 4.11653 15.2118 4.11653 15.0858L4.12073 15.09Z" fill="#B3B3B3"/>
<path d="M6.15396 15.8543C5.81371 15.8543 5.52386 15.7534 5.28442 15.5518L5.49866 15.2493C5.68349 15.409 5.89352 15.4846 6.12456 15.4846C6.22957 15.4846 6.31779 15.4594 6.3892 15.409C6.46061 15.3586 6.49841 15.2913 6.49841 15.2115C6.49841 15.1359 6.46481 15.0771 6.3934 15.0309C6.32199 14.9847 6.22537 14.9637 6.09515 14.9637H5.85151V14.636H6.09515C6.20017 14.636 6.28418 14.6108 6.34719 14.5646C6.4102 14.5184 6.44381 14.4554 6.44381 14.3797C6.44381 14.3125 6.4144 14.2579 6.35139 14.2159C6.28838 14.1739 6.21277 14.1529 6.11615 14.1529C5.89352 14.1529 5.70869 14.2201 5.55327 14.3545L5.35163 14.0689C5.57007 13.8798 5.83891 13.7832 6.15816 13.7832C6.37659 13.7832 6.55302 13.8336 6.69164 13.9344C6.83027 14.0353 6.89748 14.1613 6.89748 14.3167C6.89748 14.5268 6.79246 14.678 6.58663 14.7662C6.82606 14.8502 6.94788 15.0099 6.94788 15.2493C6.94788 15.4216 6.87227 15.5644 6.72525 15.682C6.57823 15.7997 6.385 15.8585 6.14976 15.8585L6.15396 15.8543Z" fill="#B3B3B3"/>
<path d="M7.80054 16.413V13.8252H8.25421V14.1571C8.43064 13.9092 8.65327 13.7832 8.92631 13.7832C9.17835 13.7832 9.39259 13.8756 9.57741 14.0647C9.76224 14.2495 9.85046 14.5058 9.85046 14.8208C9.85046 15.1359 9.75804 15.3838 9.57741 15.5728C9.39679 15.7576 9.17835 15.8543 8.92631 15.8543C8.65327 15.8543 8.43064 15.7366 8.25421 15.5056V16.4172H7.80054V16.413ZM8.8213 15.4594C8.98092 15.4594 9.11534 15.4006 9.22456 15.2829C9.33378 15.1653 9.38839 15.0099 9.38839 14.8166C9.38839 14.6234 9.33378 14.4764 9.22456 14.3587C9.11534 14.2411 8.98092 14.1823 8.8213 14.1823C8.66167 14.1823 8.52725 14.2411 8.41383 14.3629C8.30042 14.4848 8.24161 14.636 8.24161 14.825C8.24161 15.0141 8.30042 15.1611 8.41383 15.2829C8.52725 15.4006 8.66587 15.4636 8.8213 15.4636V15.4594Z" fill="#B3B3B3"/>
<path d="M12.3626 15.8083H11.9131V15.5647C11.7535 15.7537 11.5392 15.8503 11.2704 15.8503C11.073 15.8503 10.905 15.7957 10.7705 15.6865C10.6361 15.5773 10.5647 15.4261 10.5647 15.2286C10.5647 15.0144 10.6403 14.8547 10.7873 14.7455C10.9344 14.6363 11.1276 14.5817 11.3712 14.5817C11.5645 14.5817 11.7493 14.6111 11.9215 14.6657V14.6279C11.9215 14.4892 11.8795 14.3842 11.7955 14.3128C11.7115 14.2414 11.5897 14.2036 11.4342 14.2036C11.2536 14.2036 11.0646 14.2456 10.8671 14.3296L10.7453 13.9641C10.989 13.8549 11.241 13.8003 11.5014 13.8003C11.7913 13.8003 12.0055 13.8717 12.1525 14.0187C12.2996 14.1658 12.371 14.3716 12.371 14.6405V15.8167L12.3626 15.8083ZM11.9215 15.09V14.9766C11.7871 14.9219 11.6359 14.8967 11.4678 14.8967C11.325 14.8967 11.2116 14.9261 11.1318 14.9808C11.052 15.0354 11.01 15.1152 11.01 15.2118C11.01 15.3 11.0478 15.3714 11.1192 15.4261C11.1906 15.4807 11.283 15.5059 11.3922 15.5059C11.5435 15.5059 11.6695 15.4681 11.7703 15.3882C11.8711 15.3126 11.9173 15.2118 11.9173 15.0858L11.9215 15.09Z" fill="#B3B3B3"/>
<path d="M14.2402 15.8544C13.921 15.8544 13.669 15.7535 13.4883 15.5519C13.3077 15.3502 13.2195 15.0646 13.2195 14.6991C13.2195 14.5815 13.2195 14.4764 13.2279 14.3882C13.2321 14.3 13.2447 14.2034 13.2657 14.0984C13.2825 13.9933 13.3119 13.9051 13.3455 13.8253C13.3833 13.7497 13.4295 13.6741 13.4841 13.6027C13.5387 13.5312 13.6143 13.4724 13.7026 13.422C13.7908 13.3716 13.8958 13.338 14.0134 13.3128L15.0972 13.0859L15.1728 13.4514L14.089 13.6867C13.9084 13.7245 13.7782 13.7917 13.7026 13.8883C13.6227 13.9849 13.5807 14.1068 13.5681 14.2496C13.6269 14.1488 13.7236 14.0606 13.8538 13.9891C13.984 13.9135 14.1436 13.8799 14.3327 13.8799C14.5889 13.8799 14.8115 13.9723 15.0006 14.1614C15.1854 14.3462 15.282 14.5773 15.282 14.8461C15.282 15.115 15.1854 15.3628 14.988 15.5603C14.7905 15.7577 14.5469 15.8586 14.2486 15.8586L14.2402 15.8544ZM14.2486 15.4595C14.4167 15.4595 14.5553 15.4007 14.6603 15.283C14.7653 15.1654 14.8199 15.0226 14.8199 14.8503C14.8199 14.6781 14.7653 14.5353 14.6519 14.4176C14.5385 14.3 14.4041 14.2412 14.2402 14.2412C14.0764 14.2412 13.9378 14.3 13.8328 14.4176C13.7278 14.5353 13.6732 14.6823 13.6732 14.8545C13.6732 15.0268 13.7278 15.1696 13.837 15.2872C13.9462 15.4049 14.0848 15.4637 14.2444 15.4637L14.2486 15.4595Z" fill="#B3B3B3"/>
<path d="M17.0588 15.8546C16.7563 15.8546 16.5085 15.7537 16.3068 15.5521C16.1052 15.3504 16.0044 15.1068 16.0044 14.8169C16.0044 14.5271 16.1052 14.2834 16.3068 14.0818C16.5085 13.8801 16.7605 13.7793 17.063 13.7793C17.3654 13.7793 17.6132 13.8801 17.8149 14.0818C18.0165 14.2834 18.1173 14.5271 18.1173 14.8169C18.1173 15.1068 18.0165 15.3462 17.8149 15.5479C17.6132 15.7495 17.357 15.8504 17.0546 15.8504L17.0588 15.8546ZM17.0672 15.4597C17.2478 15.4597 17.3948 15.3967 17.504 15.2748C17.6132 15.153 17.6679 15.0018 17.6679 14.8211C17.6679 14.6405 17.609 14.4935 17.4956 14.3674C17.3822 14.2456 17.2352 14.1826 17.0588 14.1826C16.8823 14.1826 16.7353 14.2456 16.6261 14.3674C16.5169 14.4893 16.4623 14.6405 16.4623 14.8211C16.4623 15.0018 16.5211 15.1488 16.6345 15.2706C16.7479 15.3967 16.8949 15.4597 17.0672 15.4597Z" fill="#B3B3B3"/>
<path d="M19.3104 15.8083V14.212H18.6719V13.8213H20.4067V14.212H19.7682V15.8083H19.3104Z" fill="#B3B3B3"/>
<path d="M21.1418 15.8083V13.8213H21.5913V14.7707L22.4567 13.8213H22.9901L22.2214 14.6573L23.0573 15.8083H22.5197L21.919 14.9891L21.5955 15.3294V15.8083H21.146H21.1418Z" fill="#B3B3B3"/>
<path d="M25.3384 15.8083H24.8889V15.5647C24.7293 15.7537 24.5151 15.8503 24.2462 15.8503C24.0488 15.8503 23.8808 15.7957 23.7464 15.6865C23.6119 15.5773 23.5405 15.4261 23.5405 15.2286C23.5405 15.0144 23.6161 14.8547 23.7632 14.7455C23.9102 14.6363 24.1034 14.5817 24.3471 14.5817C24.5403 14.5817 24.7251 14.6111 24.8973 14.6657V14.6279C24.8973 14.4892 24.8553 14.3842 24.7713 14.3128C24.6873 14.2414 24.5655 14.2036 24.4101 14.2036C24.2294 14.2036 24.0404 14.2456 23.843 14.3296L23.7212 13.9641C23.9648 13.8549 24.2168 13.8003 24.4773 13.8003C24.7671 13.8003 24.9814 13.8717 25.1284 14.0187C25.2754 14.1658 25.3468 14.3716 25.3468 14.6405V15.8167L25.3384 15.8083ZM24.8973 15.09V14.9766C24.7629 14.9219 24.6117 14.8967 24.4437 14.8967C24.3008 14.8967 24.1874 14.9261 24.1076 14.9808C24.0278 15.0354 23.9858 15.1152 23.9858 15.2118C23.9858 15.3 24.0236 15.3714 24.095 15.4261C24.1664 15.4807 24.2588 15.5059 24.3681 15.5059C24.5193 15.5059 24.6453 15.4681 24.7461 15.3882C24.8469 15.3126 24.8931 15.2118 24.8931 15.0858L24.8973 15.09Z" fill="#B3B3B3"/>
<path d="M28.6778 15.8543C28.3837 15.8543 28.1401 15.7534 27.9469 15.556C27.7536 15.3586 27.6528 15.1149 27.6528 14.8292V14.8208C27.6528 14.5352 27.7494 14.2915 27.9469 14.0899C28.1443 13.8882 28.3879 13.7832 28.682 13.7832C29.0012 13.7832 29.2659 13.8966 29.4759 14.1277L29.1945 14.4301C29.0348 14.2663 28.8668 14.1823 28.6778 14.1823C28.514 14.1823 28.3795 14.2453 28.2703 14.3671C28.1611 14.489 28.1065 14.6402 28.1065 14.8124V14.8208C28.1065 15.0015 28.1611 15.1527 28.2745 15.2745C28.3879 15.3964 28.5266 15.4594 28.703 15.4594C28.8878 15.4594 29.0558 15.3754 29.2197 15.2115L29.4927 15.4804C29.3835 15.6022 29.2659 15.6946 29.1399 15.7576C29.0138 15.8207 28.8584 15.8543 28.6778 15.8543Z" fill="#B3B3B3"/>
<path d="M31.9292 15.8083H31.4798V15.5647C31.3201 15.7537 31.1059 15.8503 30.8371 15.8503C30.6396 15.8503 30.4716 15.7957 30.3372 15.6865C30.2028 15.5773 30.1313 15.4261 30.1313 15.2286C30.1313 15.0144 30.207 14.8547 30.354 14.7455C30.501 14.6363 30.6942 14.5817 30.9379 14.5817C31.1311 14.5817 31.3159 14.6111 31.4882 14.6657V14.6279C31.4882 14.4892 31.4462 14.3842 31.3621 14.3128C31.2781 14.2414 31.1563 14.2036 31.0009 14.2036C30.8203 14.2036 30.6312 14.2456 30.4338 14.3296L30.312 13.9641C30.5556 13.8549 30.8077 13.8003 31.0681 13.8003C31.3579 13.8003 31.5722 13.8717 31.7192 14.0187C31.8662 14.1658 31.9376 14.3716 31.9376 14.6405V15.8167L31.9292 15.8083ZM31.4882 15.09V14.9766C31.3537 14.9219 31.2025 14.8967 31.0345 14.8967C30.8917 14.8967 30.7782 14.9261 30.6984 14.9808C30.6186 15.0354 30.5766 15.1152 30.5766 15.2118C30.5766 15.3 30.6144 15.3714 30.6858 15.4261C30.7572 15.4807 30.8497 15.5059 30.9589 15.5059C31.1101 15.5059 31.2361 15.4681 31.3369 15.3882C31.4377 15.3126 31.484 15.2118 31.484 15.0858L31.4882 15.09Z" fill="#B3B3B3"/>
<path d="M32.845 15.8083V13.8212H33.2902V15.1529C33.7061 14.5606 34.0212 14.1195 34.2312 13.8212H34.6597V15.8083H34.2186V14.485L33.2734 15.8083H32.845ZM34.1472 13.4515C34.0422 13.544 33.9119 13.5944 33.7523 13.5944C33.5927 13.5944 33.4625 13.5482 33.3575 13.4515C33.2524 13.3549 33.1852 13.2289 33.16 13.0693L33.4373 13.0146C33.4919 13.1869 33.5927 13.2709 33.7481 13.2709C33.9035 13.2709 34.0086 13.1869 34.059 13.0146L34.332 13.0693C34.3068 13.2289 34.2438 13.3591 34.1388 13.4515H34.1472Z" fill="#B3B3B3"/>
<path d="M36.0333 15.8083V14.212H35.3948V13.8213H37.1296V14.212H36.4911V15.8083H36.0333Z" fill="#B3B3B3"/>
<path d="M38.7343 15.8546C38.4319 15.8546 38.184 15.7537 37.9824 15.5521C37.7807 15.3504 37.6799 15.1068 37.6799 14.8169C37.6799 14.5271 37.7807 14.2834 37.9824 14.0818C38.184 13.8801 38.4361 13.7793 38.7385 13.7793C39.0409 13.7793 39.2888 13.8801 39.4904 14.0818C39.692 14.2834 39.7929 14.5271 39.7929 14.8169C39.7929 15.1068 39.692 15.3462 39.4904 15.5479C39.2888 15.7495 39.0325 15.8504 38.7301 15.8504L38.7343 15.8546ZM38.7427 15.4597C38.9233 15.4597 39.0703 15.3967 39.1796 15.2748C39.2888 15.153 39.3434 15.0018 39.3434 14.8211C39.3434 14.6405 39.2846 14.4935 39.1712 14.3674C39.0577 14.2456 38.9107 14.1826 38.7343 14.1826C38.5579 14.1826 38.4108 14.2456 38.3016 14.3674C38.1924 14.4893 38.1378 14.6405 38.1378 14.8211C38.1378 15.0018 38.1966 15.1488 38.31 15.2706C38.4234 15.3967 38.5705 15.4597 38.7427 15.4597Z" fill="#B3B3B3"/>
<path d="M40.6372 15.8083V13.8213H41.658C41.8554 13.8213 42.015 13.8675 42.1326 13.9557C42.2503 14.0439 42.3091 14.1658 42.3091 14.317C42.3091 14.5228 42.2041 14.6783 41.9898 14.7707C42.2629 14.8505 42.4015 15.0144 42.4015 15.2664C42.4015 15.4344 42.3343 15.5647 42.2041 15.6613C42.0738 15.7579 41.8932 15.8041 41.6706 15.8041H40.6414L40.6372 15.8083ZM41.0825 14.6447H41.5488C41.6412 14.6447 41.7126 14.6237 41.7672 14.5775C41.8218 14.5312 41.847 14.4724 41.847 14.401C41.847 14.3338 41.8218 14.2792 41.7756 14.2372C41.7294 14.1952 41.6538 14.1742 41.5572 14.1742H41.0825V14.6447ZM41.0825 15.4512H41.5992C41.7084 15.4512 41.7924 15.4302 41.8512 15.3798C41.91 15.3336 41.9394 15.2706 41.9394 15.195C41.9394 15.1194 41.91 15.0606 41.847 15.0186C41.784 14.9765 41.6958 14.9555 41.5782 14.9555H41.0867V15.4512H41.0825Z" fill="#B3B3B3"/>
<path d="M43.1995 15.8082V15.2915H43.6993V15.8082H43.1995Z" fill="#B3B3B3"/>
<path d="M46.1231 15.8083V13.8213H46.5726L47.1943 14.7413L47.8202 13.8213H48.2696V15.8083H47.8118V14.485L47.1859 15.3756L46.5642 14.4934V15.8083H46.1189H46.1231Z" fill="#B3B3B3"/>
<path d="M50.8826 15.8083H50.4331V15.5647C50.2735 15.7537 50.0593 15.8503 49.7904 15.8503C49.593 15.8503 49.425 15.7957 49.2905 15.6865C49.1561 15.5773 49.0847 15.4261 49.0847 15.2286C49.0847 15.0144 49.1603 14.8547 49.3074 14.7455C49.4544 14.6363 49.6476 14.5817 49.8912 14.5817C50.0845 14.5817 50.2693 14.6111 50.4415 14.6657V14.6279C50.4415 14.4892 50.3995 14.3842 50.3155 14.3128C50.2315 14.2414 50.1097 14.2036 49.9543 14.2036C49.7736 14.2036 49.5846 14.2456 49.3872 14.3296L49.2653 13.9641C49.509 13.8549 49.761 13.8003 50.0215 13.8003C50.3113 13.8003 50.5255 13.8717 50.6726 14.0187C50.8196 14.1658 50.891 14.3716 50.891 14.6405V15.8167L50.8826 15.8083ZM50.4415 15.09V14.9766C50.3071 14.9219 50.1559 14.8967 49.9879 14.8967C49.845 14.8967 49.7316 14.9261 49.6518 14.9808C49.572 15.0354 49.53 15.1152 49.53 15.2118C49.53 15.3 49.5678 15.3714 49.6392 15.4261C49.7106 15.4807 49.803 15.5059 49.9122 15.5059C50.0635 15.5059 50.1895 15.4681 50.2903 15.3882C50.3911 15.3126 50.4373 15.2118 50.4373 15.0858L50.4415 15.09Z" fill="#B3B3B3"/>
<path d="M51.7983 16.413V13.8252H52.252V14.1571C52.4284 13.9092 52.6511 13.7832 52.9241 13.7832C53.1762 13.7832 53.3904 13.8756 53.5752 14.0647C53.76 14.2495 53.8483 14.5058 53.8483 14.8208C53.8483 15.1359 53.7558 15.3838 53.5752 15.5728C53.3946 15.7576 53.1762 15.8543 52.9241 15.8543C52.6511 15.8543 52.4284 15.7366 52.252 15.5056V16.4172H51.7983V16.413ZM52.8191 15.4594C52.9787 15.4594 53.1131 15.4006 53.2224 15.2829C53.3316 15.1653 53.3862 15.0099 53.3862 14.8166C53.3862 14.6234 53.3316 14.4764 53.2224 14.3587C53.1131 14.2411 52.9787 14.1823 52.8191 14.1823C52.6595 14.1823 52.5251 14.2411 52.4116 14.3629C52.2982 14.4848 52.2394 14.636 52.2394 14.825C52.2394 15.0141 52.2982 15.1611 52.4116 15.2829C52.5251 15.4006 52.6637 15.4636 52.8191 15.4636V15.4594Z" fill="#B3B3B3"/>
<path d="M54.6926 15.8083V13.8213H55.1421V14.7707L56.0074 13.8213H56.5409L55.7722 14.6573L56.6081 15.8083H56.0704L55.4698 14.9891L55.1463 15.3294V15.8083H54.6968H54.6926Z" fill="#B3B3B3"/>
<path d="M58.0952 15.8543C57.8053 15.8543 57.5617 15.7576 57.3685 15.5644C57.1752 15.3712 57.0786 15.1233 57.0786 14.8166C57.0786 14.5268 57.171 14.2831 57.3517 14.0857C57.5365 13.884 57.7675 13.7832 58.049 13.7832C58.3514 13.7832 58.5824 13.884 58.7505 14.0899C58.9185 14.2957 59.0025 14.5478 59.0025 14.8502C59.0025 14.9049 59.0025 14.9469 58.9941 14.9763H57.5365C57.5617 15.1359 57.6247 15.2577 57.7297 15.3459C57.8347 15.4342 57.9607 15.4804 58.1078 15.4804C58.3052 15.4804 58.4816 15.4006 58.6455 15.2451L58.9101 15.4804C58.7043 15.7282 58.4354 15.8543 58.0994 15.8543H58.0952ZM57.5281 14.678H58.5488C58.532 14.5268 58.4816 14.4007 58.3934 14.2999C58.3052 14.1991 58.1876 14.1529 58.0448 14.1529C57.9019 14.1529 57.7927 14.2033 57.7003 14.2999C57.6079 14.3965 57.5533 14.5226 57.5323 14.678H57.5281Z" fill="#B3B3B3"/>
<path d="M60.1829 15.8083V14.212H59.5444V13.8213H61.2793V14.212H60.6408V15.8083H60.1829Z" fill="#B3B3B3"/>
<path d="M62.0186 15.8083V13.8213H62.4638V15.153C62.8797 14.5607 63.1947 14.1196 63.4048 13.8213H63.8332V15.8083H63.3922V14.485L62.447 15.8083H62.0186Z" fill="#B3B3B3"/>
<path d="M64.7783 15.8083V13.8213H65.232V14.6279H66.1057V13.8213H66.5594V15.8083H66.1057V15.006H65.232V15.8083H64.7783Z" fill="#B3B3B3"/>
<path d="M67.5088 15.8083V13.8213H68.916V14.212H67.9667V15.8083H67.513H67.5088Z" fill="#B3B3B3"/>
<path d="M12.8961 0.0253906H10.0732V11.0108H18.1679V8.53228H12.8961V0.0253906Z" fill="#B3B3B3"/>
<path d="M34.6765 7.17958L31.946 0.0253906H28.825L33.3113 11.0738H35.9955L40.4986 0.0253906H37.4195L34.6765 7.17958Z" fill="#B3B3B3"/>
<path d="M59.0109 0.0253906V6.06633L54.2096 0.0253906H51.7942V11.0108H54.5708V4.93628L59.4352 11.0108H61.7749V0.0253906H59.0109Z" fill="#B3B3B3"/>
<path d="M50.0677 0.0253906H41.7209V2.50394H50.0677V0.0253906Z" fill="#B3B3B3"/>
<path d="M44.1993 5.70488L41.7209 4.28076V6.75931H50.0677V4.28076H44.1993V5.70488Z" fill="#B3B3B3"/>
<path d="M44.1993 9.95634L41.7209 8.53223V11.0108H50.0677V8.53223H44.1993V9.95634Z" fill="#B3B3B3"/>
<path d="M0 0.0253906V2.50394V4.28093V6.75948V8.53228V11.0108H2.47839H8.61555V8.53228H2.47839V6.75948H8.61555V4.28093H2.47839V2.50394H8.61555V0.0253906H2.47839H0Z" fill="#B3B3B3"/>
<path d="M19.6296 0.0253906V2.50394V4.28093V6.75948V8.53228V11.0108H22.108H27.9763V8.53228H22.108V6.75948H27.9763V4.28093H22.108V2.50394H27.9763V0.0253906H22.108H19.6296Z" fill="#B3B3B3"/>
</svg>
