<svg width="30" height="30" viewBox="0 0 30 30" fill="none" xmlns="http://www.w3.org/2000/svg">
<path d="M29.1746 29.1746C28.9131 29.4363 28.6026 29.6439 28.2608 29.7855C27.919 29.9271 27.5527 30 27.1827 30C26.8128 30 26.4465 29.9271 26.1047 29.7855C25.7629 29.6439 25.4524 29.4363 25.1909 29.1746L20.2192 24.2029C18.1738 25.512 15.7565 26.2953 13.1476 26.2953C5.88638 26.2953 0 20.4089 0 13.1476C0 5.88638 5.88638 0 13.1476 0C20.4089 0 26.2953 5.88638 26.2953 13.1476C26.2953 15.7565 25.512 18.1738 24.2029 20.2192L29.1746 25.1909C29.4363 25.4524 29.6439 25.7629 29.7855 26.1047C29.9271 26.4465 30 26.8128 30 27.1827C30 27.5527 29.9271 27.919 29.7855 28.2608C29.6439 28.6026 29.4363 28.9131 29.1746 29.1746ZM13.1476 3.75647C7.96183 3.75647 3.75647 7.95995 3.75647 13.1476C3.75647 18.3353 7.96183 22.5388 13.1476 22.5388C18.3353 22.5388 22.5388 18.3353 22.5388 13.1476C22.5388 7.95995 18.3353 3.75647 13.1476 3.75647Z" fill="#FBBB1F"/>
</svg>
