<svg width="845" height="209" viewBox="0 0 845 209" fill="none" xmlns="http://www.w3.org/2000/svg">
<path fill-rule="evenodd" clip-rule="evenodd" d="M264.621 41.8178C267.224 40.256 272.43 40.5683 275.137 41.8178C273.211 45.2536 267.068 43.6919 264.621 41.8178ZM270.4 53.3748C270.035 56.5504 265.194 58.3204 264.101 54.9365C268.89 51.3965 276.178 48.5333 281.957 52.8542C279.146 54.0516 274.096 53.0104 270.4 53.3748ZM274.096 71.231C273.367 67.3786 279.874 68.4719 281.957 69.1487C282.79 73.2093 275.658 72.8448 274.096 71.231ZM281.436 83.3087C279.51 83.621 277.428 83.8292 276.178 84.8704C275.397 84.0895 275.345 82.5798 275.137 81.1742C277.115 80.8619 278.417 79.9248 280.916 80.1331C280.551 81.7469 281.801 81.6949 281.436 83.3087ZM274.617 79.0918C276.491 80.4974 266.704 86.5363 265.662 80.6536C268.942 80.4454 271.805 79.7686 274.617 79.0918ZM271.441 54.416C274.46 55.4572 277.115 56.8107 280.916 57.071C280.916 58.1121 280.916 59.1533 280.916 60.2466C275.97 60.1424 272.066 58.9451 271.441 54.468V54.416ZM273.523 66.4936C270.452 68.4198 267.12 68.0034 264.569 65.9731C266.391 62.3289 271.649 64.4112 273.523 66.4936ZM275.085 90.1284C271.285 91.2737 267.38 92.2107 267.224 96.9481H263.007V93.7725C264.621 93.4081 264.569 94.6574 266.183 94.293C268.057 90.5448 270.92 87.8378 274.564 85.9116C275.762 86.276 274.773 88.879 275.085 90.1284ZM273.523 98.5098C271.597 99.1866 268.734 98.9784 266.704 99.551C267.693 97.0522 269.359 95.2301 273.523 95.8548V98.4577V98.5098ZM268.265 112.67H263.528C263.528 111.629 263.528 110.588 263.528 109.494C265.194 109.598 267.38 109.13 268.265 110.015V112.618V112.67ZM256.188 104.809C257.125 101.685 261.394 101.737 263.528 103.768C261.81 105.434 258.478 106.527 256.188 104.809ZM257.749 117.928H253.533V115.273C254.938 115.273 256.344 115.273 257.749 115.273V117.928ZM213.083 106.371C202.203 102.831 192.832 90.7531 190.489 79.5604C185.544 56.186 198.871 35.4666 218.341 32.291C235.104 29.5318 247.234 37.3407 253.533 47.0236C271.701 74.8751 249.212 118.188 213.083 106.371ZM189.969 118.448C187.001 119.646 184.659 118.552 184.19 115.793C185.804 115.481 188.719 116.47 189.448 115.273C190.593 115.325 189.656 117.511 189.969 118.448ZM182.108 99.0304C180.598 99.1345 179.921 99.9674 178.412 100.072C178.203 99.0824 177.266 98.7701 177.371 97.4166C178.672 96.7919 180.442 96.6878 182.108 96.3754C182.108 97.2604 182.108 98.1454 182.108 99.0304ZM176.329 94.293C175.08 94.293 173.883 94.293 172.633 94.293V91.6901C174.299 91.9504 174.507 90.7531 176.329 91.1695V94.3451V94.293ZM168.989 83.7772C169.718 83.1004 169.301 81.2784 170.03 80.6016C172.061 80.3413 172.581 81.5386 174.768 81.1221V84.2457C173.31 83.621 171.123 83.673 168.989 83.7251V83.7772ZM182.108 65.921C180.754 69.2527 169.458 70.9707 168.989 65.921C174.247 65.6086 176.902 65.6086 182.108 65.921ZM178.412 60.663C176.433 61.6522 174.039 62.0166 171.592 61.1837C171.956 58.6328 177.839 57.071 178.412 60.663ZM186.273 47.5442C183.253 49.3142 176.694 55.9257 174.195 50.1471C177.162 48.2209 181.952 48.1168 186.273 47.5442ZM179.453 43.848C179.453 44.733 179.453 45.618 179.453 46.451C177.839 46.0866 177.527 46.9715 176.277 46.9715C175.653 45.6701 174.195 45.2016 174.195 43.2754C176.277 43.1192 177.11 44.2124 179.453 43.7959V43.848ZM187.314 103.195C189.708 104.809 188.459 106.943 184.711 106.371C185.023 104.809 185.544 103.351 187.314 103.195ZM178.932 58.5286V55.9257C180.754 56.3421 180.963 55.1448 182.628 55.4051C183.253 56.0298 183.201 57.2792 183.149 58.5807C181.743 58.5807 180.338 58.5807 178.932 58.5807V58.5286ZM174.195 77.426C175.965 74.0422 178.88 73.3133 183.149 74.8231V77.426H174.195ZM179.453 88.4624C182.004 88.046 186.012 86.0157 185.231 90.5449C183.305 90.9093 181.223 91.1175 179.453 91.586C179.453 90.5448 179.453 89.5037 179.453 88.4104V88.4624ZM193.613 31.7183C193.196 33.228 194.342 33.0718 194.133 34.3733C193.196 35.1542 191.166 34.946 190.437 35.9351C189.813 35.831 190.021 34.998 189.917 34.3733C188.043 34.4254 187.574 35.883 185.7 35.9351C183.826 34.6336 181.952 33.3842 179.921 32.2389C182.889 31.9786 189.969 33.8527 193.561 31.7183H193.613ZM194.133 23.8574C193.457 25.315 192.051 25.9397 190.958 27.033C189.448 26.8247 189.708 24.7945 188.355 24.378C189.24 23.1806 192.363 24.1697 194.133 23.8574ZM199.912 24.8986C199.339 26.0439 198.142 26.6165 197.83 28.0221C196.372 27.3974 194.81 26.8247 193.092 26.4603C194.394 24.9506 196.997 24.7424 199.912 24.8986ZM196.216 19.1201C197.621 19.1201 199.027 19.1201 200.433 19.1201C200.849 20.6298 199.704 20.4736 199.912 21.7751H196.216V19.1721V19.1201ZM249.264 19.1201C250.826 19.1201 252.439 19.1201 254.001 19.1201C254.001 20.1613 254.001 21.2024 254.001 22.2957H249.264V19.1201ZM260.821 29.1154C262.018 29.3236 261.029 31.7183 261.341 32.8115C259.728 32.6553 257.229 33.3842 257.125 31.7703C256.864 29.4277 259.832 30.3127 260.821 29.1674V29.1154ZM263.424 24.8986C265.298 24.378 264.153 26.9809 264.465 28.0221C261.966 27.8139 260.977 29.1674 260.248 26.9809C259.884 24.8465 262.851 26.096 263.424 24.8986ZM225.577 0.222685C225.213 0.222685 224.848 0.222685 224.536 0.222685C200.328 -1.1829 181.587 13.9662 172.529 27.033C166.178 36.1433 159.358 54.1036 159.41 70.1377C159.514 108.609 186.793 137.97 221.412 139.48C258.634 141.094 286.85 111.056 289.714 75.9162C291.275 57.0189 282.946 34.0089 273.94 23.3889C264.361 12.04 245.099 -0.506167 225.577 0.274716V0.222685Z" fill="white"/>
<path fill-rule="evenodd" clip-rule="evenodd" d="M385.243 94.345C383.681 94.345 382.067 94.345 380.505 94.345C381.078 91.9503 382.9 90.7529 386.284 91.2214C386.544 92.8873 385.555 93.2517 385.243 94.397M378.944 99.655C378.944 98.77 378.944 97.885 378.944 97.0521H384.202C385.399 100.696 379.829 99.7591 378.944 99.655ZM382.64 113.867C380.922 114.179 380.193 113.503 378.944 113.346C378.944 112.461 378.944 111.576 378.944 110.691C380.766 110.275 380.974 111.472 382.64 111.212V113.867ZM374.258 91.7941C375.82 91.7941 377.434 91.7941 378.996 91.7941C380.401 96.2191 372.957 95.9067 374.258 91.7941ZM376.341 121.728C375.039 121.832 374.727 120.895 373.738 120.687C373.686 117.876 377.174 118.448 378.475 119.646C378.007 120.583 377.278 121.259 376.393 121.728H376.341ZM372.124 110.691C372.905 109.911 375.56 109.911 376.341 110.691C376.705 112.305 375.456 112.253 375.82 113.867C374.31 113.763 373.634 112.93 372.124 112.826V110.744V110.691ZM367.387 87.0567C370.666 85.1305 372.905 87.4211 375.768 88.6185C373.842 90.5967 367.23 91.2735 367.387 87.0567ZM372.644 79.1959C373.061 81.0179 372.072 81.4344 371.603 82.3715C368.688 82.9962 368.428 81.018 366.866 80.2891C367.959 79.1959 371.083 78.1547 372.644 79.2479V79.1959ZM364.263 79.1959C363.586 78.5191 362.285 78.5191 362.181 79.7165C359.734 74.9791 354.736 79.4562 349.582 79.1959C347.084 78.9876 350.728 77.6341 350.624 76.5409C348.749 72.7926 341.253 74.6668 338.025 72.3241C341.722 70.7624 345.626 69.4609 350.103 68.6279C344.272 66.4414 337.817 71.1788 331.206 68.1073C332.299 64.9317 338.598 63.9947 341.722 66.025C345.157 64.2029 350.884 64.6715 354.84 63.37C356.975 63.9947 352.342 66.2852 352.237 68.1073C357.547 68.4717 364.471 65.6606 364.836 71.8035C362.805 72.5844 360.411 73.0008 357.495 72.8447C358.745 74.1982 359.89 75.7079 362.233 75.9682C364.419 73.5735 366.397 71.0226 370.614 70.7102C370.718 73.6255 364.575 74.8229 364.315 79.1438L364.263 79.1959ZM361.087 128.6C359.369 125.424 364.732 124.435 364.784 128.079C363.534 128.235 362.805 128.912 361.087 128.6ZM359.526 118.084H362.649C363.17 120.531 361.712 120.999 359.526 120.687V118.084ZM349.01 132.296C347.448 130.474 349.374 128.808 350.572 128.079C351.457 128.6 351.144 130.318 351.613 131.255C350.624 131.463 350.311 132.4 349.01 132.296ZM345.834 121.78C345.834 121.051 345.834 120.374 345.834 119.698C346.615 118.865 348.541 119.229 350.051 119.177V122.353C348.541 122.301 346.615 122.613 345.834 121.832V121.78ZM333.756 129.12C333.028 128.444 333.236 126.83 333.236 125.424C334.121 126.309 336.307 125.841 337.973 125.945C337.505 127.923 336.099 128.964 333.756 129.12ZM356.35 85.495C357.495 83.5688 357.391 82.7359 354.788 82.3194C357.183 80.8097 361.087 81.3824 363.742 82.3194V84.4017C361.556 85.0265 359.63 85.8594 356.402 85.4429L356.35 85.495ZM326.937 58.6847C326.52 57.1749 327.666 57.3311 327.457 56.0817C330.06 56.0817 332.091 56.7064 334.277 57.1229C333.548 59.6217 329.123 60.6629 326.937 58.6847ZM331.674 49.21C332.872 49.4182 331.882 51.8129 332.195 52.9061C330.373 52.6979 329.227 53.1144 327.978 53.4267C328.238 51.7609 327.301 51.2924 326.416 50.7718C327.562 49.6265 330.737 50.5115 331.674 49.21ZM324.334 44.4726H327.509C327.301 45.722 328.446 45.6179 328.03 47.0756C326.624 47.0756 325.011 47.2838 324.334 46.5549V44.4726ZM321.731 34.4773H324.906C324.75 35.3103 325.427 35.3623 325.427 36.0391C325.375 37.9132 323.084 37.5488 321.731 38.1214V34.4252V34.4773ZM321.21 57.5915H316.473V54.9364C318.92 54.9364 322.095 54.2597 321.21 57.5915ZM313.349 35.5185C312.933 34.0088 314.078 34.165 313.87 32.8635C316.213 32.4991 316.004 34.5814 317.566 34.9458C316.785 35.8308 314.443 36.5076 313.349 35.4664V35.5185ZM317.046 45.5138C317.098 43.8479 318.243 43.2232 320.221 43.4314C320.273 44.7329 320.325 45.9823 319.701 46.607C318.399 46.7112 318.087 45.7741 317.098 45.5659L317.046 45.5138ZM320.742 49.7305C320.742 50.6155 320.742 51.5006 320.742 52.3856C319.336 52.3856 317.722 52.5938 317.046 51.865C317.046 51.1361 317.046 50.4594 317.046 49.7826H320.742V49.7305ZM326 25.5752C327.145 25.6273 326.208 27.8138 326.52 28.6988C322.512 28.6988 318.451 28.6988 314.443 28.6988C317.462 26.8247 322.408 26.8767 326 25.5752ZM324.438 16.6211C325.687 16.6211 326.885 16.6211 328.134 16.6211V19.224C326.885 19.224 325.687 19.224 324.438 19.224V16.6211ZM334.433 11.3632C334.694 13.3414 333.392 13.81 332.871 15.0594C330.945 14.747 329.592 13.81 327.614 13.4976C329.123 12.04 332.039 11.9878 334.433 11.4152V11.3632ZM334.954 18.1829C336.88 18.339 339.587 17.7144 340.732 18.7035C339.223 20.2132 336.568 20.5255 335.474 22.3996C334.589 21.1502 334.537 19.4323 334.954 18.1829ZM342.815 13.9661C343.335 16.4129 341.878 16.8814 339.639 16.5691C339.119 14.1223 340.576 13.6538 342.815 13.9661ZM342.815 8.70819H345.418C345.314 10.0097 346.251 10.374 346.979 10.7905C346.563 11.9879 344.012 10.9988 342.763 11.3111V8.70819H342.815ZM351.769 59.1532C346.875 62.2246 337.713 65.5043 331.258 62.3288C336.307 59.5176 344.741 60.0382 351.769 59.1532ZM377.538 84.9224C378.944 84.9224 380.349 84.9224 381.755 84.9224C381.755 85.8074 381.755 86.6923 381.755 87.5773H377.538V84.9224ZM322.876 122.769C321.939 123.238 320.273 122.925 319.701 123.81C318.555 123.758 319.492 121.572 319.18 120.687C320.534 120.635 321.679 120.374 322.356 119.646C323.501 119.698 322.564 121.884 322.876 122.821V122.769ZM362.805 9.28084C361.244 10.4782 359.63 11.6755 356.506 11.3632C356.142 7.04228 359.838 9.80143 362.805 9.28084ZM348.593 52.9061C343.283 49.7826 335.787 44.5247 335.995 38.6941C336.307 30.1564 347.084 27.6576 354.892 30.3126C360.931 32.3429 364.107 38.7982 368.011 39.2667C371.759 39.7353 377.694 36.4035 380.609 35.05C384.097 33.4361 389.355 30.5729 390.084 27.189C391.282 21.4105 386.648 15.9964 382.744 12.4564C373.842 4.54349 358.745 -1.23508 343.856 0.378743C325.063 2.40904 311.996 13.029 307.102 27.7096C297.263 57.175 320.638 72.3762 339.171 81.3303C349.01 86.0676 363.586 91.7941 362.285 101.269C361.087 110.223 345.105 111.524 336.516 107.568C330.841 104.965 328.03 96.4274 321.783 95.4903C315.432 94.5532 300.283 101.373 299.189 106.006C297.94 111.368 303.406 120.062 307.623 124.383C313.974 130.942 324.802 136.304 331.778 138.022C351.613 143.02 374.05 135.68 383.785 126.465C392.999 117.771 399.715 100.488 392.739 83.8811C385.243 66.0249 365.148 62.5891 348.593 52.9061Z" fill="white"/>
<path fill-rule="evenodd" clip-rule="evenodd" d="M109.903 52.8542C111.777 54.1557 114.953 54.1557 116.202 52.3336C114.276 52.646 110.944 51.6569 109.903 52.8542Z" fill="white"/>
<path fill-rule="evenodd" clip-rule="evenodd" d="M33.2205 65.4524C34.0534 67.1704 35.2508 66.5457 34.2616 69.1486C35.8755 68.8363 38.7908 69.8254 39.5196 68.628C36.396 68.628 36.8125 65.0359 33.2205 65.4524Z" fill="white"/>
<path fill-rule="evenodd" clip-rule="evenodd" d="M72.6282 77.5301C72.7844 76.2807 74.9188 77.2178 75.2311 77.5301V74.3545H73.1488C73.9817 76.1245 70.9102 76.593 72.6282 77.5301Z" fill="white"/>
<path fill-rule="evenodd" clip-rule="evenodd" d="M133.538 121.155C134.423 120.114 135.984 119.75 137.754 119.594C138.171 120.218 138.431 120.999 138.275 122.249C136.661 123.602 134.214 122.405 133.538 121.207M129.321 106.995C131.664 106.631 131.455 108.713 133.017 109.078C131.351 110.952 127.447 109.598 129.321 106.995ZM127.239 86.5363C125.989 87.7857 124.636 86.4322 123.022 86.5363C122.97 85.2348 122.97 83.9854 123.542 83.3607C125.573 83.621 127.811 83.673 127.239 86.5363ZM126.197 105.434C124.167 104.497 123.074 102.622 123.594 99.1345C125.885 100.644 126.978 101.894 126.197 105.434ZM114.12 98.0933C116.306 96.4275 120.211 96.4795 122.501 94.9178C123.386 95.5945 122.918 97.6769 124.584 97.5207C122.137 98.718 117.399 97.7289 114.068 98.0412L114.12 98.0933ZM110.424 81.2783C115.369 78.9356 123.647 79.3521 131.976 79.1959C127.499 82.5277 116.202 85.6512 110.424 81.2783ZM103.083 74.4586C107.404 68.7321 116.358 74.5628 121.981 75.4998C117.66 81.9031 108.654 74.9271 103.083 74.4586ZM127.239 73.938V76.541C125.625 76.541 123.803 77.7904 122.501 76.541C121.824 73.4174 124.792 73.938 127.239 73.938ZM98.3459 72.3763C100.428 72.5324 101.261 71.4392 103.604 71.8556C101.73 69.0444 96.9403 71.9598 95.743 68.1595C96.5759 65.8168 99.0227 65.088 102.042 64.9839C98.0856 58.1121 108.289 57.0709 113.599 57.6436C107.144 55.1448 101.157 59.3095 94.7018 57.6436C97.8253 51.1883 109.591 53.4268 113.079 48.6894H121.46C121.096 50.2512 120.887 51.9171 119.898 52.9062C121.2 53.3227 122.709 53.583 124.636 53.4268C125.104 54.3639 125.885 54.9365 126.197 56.0298C124.584 60.6109 116.775 59.8301 112.037 58.6327C113.027 60.6109 113.703 65.088 117.295 65.4524C119.846 65.088 121.929 61.8603 125.156 63.8906C124.948 65.6086 123.594 66.1813 123.074 67.5868C124.323 67.5868 125.521 67.5868 126.77 67.5868C127.291 71.6474 123.386 71.1789 120.992 72.3242C119.69 71.5433 118.753 70.3459 118.389 68.628C115.89 69.1486 117.087 70.1377 115.213 71.2309C112.402 71.3351 110.007 71.4392 104.697 71.2309C103.5 72.3242 102.823 73.938 102.094 75.4477C99.8036 75.4477 97.7212 75.2395 98.398 72.2721L98.3459 72.3763ZM98.3459 79.1959C97.3047 79.1959 96.2635 79.1959 95.1703 79.1959C95.1703 78.3109 95.1703 77.426 95.1703 76.541H98.3459V79.1959ZM91.0056 57.6436C93.6606 57.9559 96.0033 58.6327 98.8665 58.6847C98.8144 60.9233 97.4609 61.8083 95.6909 62.381C93.4524 61.4439 91.8906 59.8821 90.9536 57.6436H91.0056ZM89.4438 67.1183C90.485 64.0989 93.6085 66.2853 94.7018 67.6389C92.7756 68.8883 90.5891 68.7322 89.4438 67.1183ZM87.8821 73.4174V70.2418C90.3809 70.3459 92.3071 71.0227 94.7018 71.283C94.1291 73.7297 90.6412 74.7189 87.8821 73.4174ZM86.8409 82.3715C86.3203 81.6427 85.9559 80.8098 85.2791 80.2892C86.3724 77.7904 88.8712 79.3001 90.5371 80.2892C89.4959 81.1742 88.6109 82.2154 86.8409 82.3715ZM106.259 45.566C108.549 45.9304 109.226 44.6809 111.517 45.0453C111.309 46.6071 110.684 47.7003 109.955 48.7415C108.549 48.7415 106.936 48.9498 106.259 48.2209C106.259 47.3359 106.259 46.451 106.259 45.566ZM114.12 37.1845H117.816V39.8395C116.567 39.8395 115.369 39.8395 114.12 39.8395C114.12 38.9545 114.12 38.0695 114.12 37.1845ZM118.337 40.8806C119.586 41.9218 121.304 42.4424 120.939 45.0974C120.002 45.0453 119.846 45.7221 118.857 45.618C117.347 44.4727 118.649 43.4836 118.337 40.8806ZM127.811 36.6639C124.584 37.705 120.471 38.1736 119.95 34.5815C123.907 33.9568 125.052 36.1433 127.811 36.6639ZM125.208 22.4518C126.406 23.1806 126.926 24.5862 129.425 24.0135C129.061 25.9397 127.603 26.7726 125.729 27.1891C124.063 25.8876 125.417 24.9506 125.208 22.4518ZM135.724 99.7072H130.466C131.351 97.9892 133.486 97.4686 134.683 96.0109C135.516 96.7918 135.776 98.0413 135.724 99.7072ZM73.2015 101.269C71.7438 100.8 71.015 99.6031 70.5985 98.0933C72.3685 98.0933 74.0865 98.0933 75.8565 98.0933C76.2729 100.436 74.9194 101.009 73.2535 101.269H73.2015ZM58.9894 72.8969C59.4059 72.4283 60.4471 72.5844 60.5512 71.8556C62.8418 71.4912 62.6856 73.5736 64.2474 73.938C62.6856 75.7601 59.1977 75.9683 58.9894 72.8969ZM43.7362 80.2371C47.3282 75.4997 54.6685 76.6971 60.5512 78.6753C55.5535 79.8206 49.6709 80.0809 43.7362 80.2371ZM54.2521 90.2324C53.315 90.2845 53.1588 89.6077 52.1697 89.7119C52.1697 88.3063 52.1697 86.9007 52.1697 85.4951C53.5232 86.276 55.8659 88.1501 54.2521 90.2324ZM55.8138 61.8603C57.3756 62.5892 57.9482 64.3071 59.51 64.9839C58.9894 65.8689 57.2715 65.5565 56.3344 66.0251C55.5015 65.2442 55.8659 63.318 55.8138 61.8083V61.8603ZM51.0765 69.7213C45.402 70.5022 35.5629 77.5821 31.0859 71.283C25.7759 71.1789 21.9755 73.1051 16.8738 71.8036C20.2055 69.3568 24.6306 68.0033 28.9514 66.5457C30.2009 66.0771 27.4938 65.2442 28.4308 63.3701C30.2008 63.3701 30.2009 61.6521 32.127 61.8083C32.127 60.4548 30.0967 61.0794 30.0447 59.7259C28.8994 60.5068 29.0035 62.5371 27.4417 62.9015C24.4744 63.5783 24.8388 60.9753 23.225 60.2986C26.5567 59.0491 32.4394 48.7415 31.0859 56.6024C33.0641 56.9148 35.5629 57.0709 36.3438 59.7259C35.5629 59.9862 35.0423 60.5068 34.2615 60.7671C36.6562 61.8083 42.3826 59.7259 45.8185 58.6847C46.9117 59.5177 45.9747 62.3809 46.8597 63.4221C48.7859 63.4221 50.712 63.4221 52.6382 63.4221C52.0656 66.3374 49.9312 67.743 46.8597 68.1595C47.8488 69.0965 49.6188 69.2527 51.0765 69.7213ZM28.4829 78.1028C26.0361 76.4889 20.7261 77.7904 18.4876 76.0204C19.8411 71.6474 27.8582 73.7297 31.6064 74.4586C31.0858 76.2286 29.6803 77.0615 28.4308 78.1548L28.4829 78.1028ZM18.4876 83.8812C19.8411 78.7274 26.3485 80.2892 29.5241 82.84C26.9212 84.2456 21.1426 82.5277 18.4876 83.8812ZM20.57 93.356C20.7261 91.0654 23.4332 89.9201 24.7867 91.7942C24.4223 93.356 22.7044 93.5642 20.57 93.356ZM17.967 121.207C17.967 120.322 17.967 119.437 17.967 118.605C20.0494 118.605 22.1838 118.605 24.2661 118.605C22.8605 120.166 21.0385 121.312 17.967 121.207ZM16.9258 112.826H12.7091C12.7091 111.941 12.7091 111.056 12.7091 110.223C14.3229 110.327 15.6764 108.974 16.9258 110.223V112.826ZM17.4464 83.9333C17.03 85.391 18.1753 85.2869 17.967 86.5363C16.145 87.0048 14.3229 87.4733 13.2297 88.6186C12.3447 88.098 12.657 86.3801 12.1885 85.443C13.7502 84.7662 15.0517 83.725 17.4464 83.8812V83.9333ZM10.6267 46.6071C12.4488 47.3359 14.427 50.095 12.1885 51.865C11.4076 51.6047 10.887 51.0842 10.1061 50.8239C10.4185 49.5745 10.835 48.4292 10.6267 46.6071ZM11.1473 22.4518C11.9803 23.545 12.2926 25.1589 13.7503 25.6274C12.8132 26.6165 10.1061 25.8356 10.0541 27.7097C8.33613 25.6794 9.42937 23.5971 11.0953 22.4518H11.1473ZM14.8435 31.4059C16.7697 30.8854 15.312 33.7486 16.9258 33.4883C15.8326 34.3212 14.7914 35.2062 13.2297 35.5706C12.7091 34.8418 12.3447 34.0089 11.6679 33.4883C12.2405 32.2909 14.2708 32.5512 14.8435 31.4059ZM18.0191 45.0453C17.03 45.9824 14.5311 45.4098 12.7611 45.566C13.5941 43.796 18.1753 40.2039 18.0191 45.0453ZM18.0191 75.4998C18.0711 77.6863 15.4161 77.1136 13.8023 77.5821C12.4488 74.3024 17.2382 73.3654 18.0191 75.4998ZM22.7564 61.8603C22.7564 62.7453 22.7564 63.6303 22.7564 64.4633C21.3508 64.4633 19.9453 64.4633 18.5397 64.4633C17.4985 61.2356 21.0385 60.663 22.7564 61.8603ZM21.1947 50.8239C22.8085 50.928 23.5373 48.9497 24.8908 50.3033C24.4744 55.6133 18.9561 52.6459 17.03 56.6024C15.8326 56.3942 16.8217 53.9994 16.5094 52.9062H21.2467C22.6003 52.8021 20.5179 52.0212 21.2467 50.8239H21.1947ZM33.7929 45.566C34.2094 48.273 32.4394 48.7935 30.0967 48.7415C29.42 45.7741 31.0859 45.2015 33.7929 45.566ZM38.0097 52.9062C36.4479 53.4789 34.5217 53.635 33.2723 54.468C31.5023 52.4897 38.27 47.3359 38.0097 52.9062ZM77.4182 69.2007C77.3662 67.8992 77.3141 66.6498 77.9388 66.0251H80.5418C80.1253 67.5348 81.2706 67.3786 81.0624 68.628C79.3965 68.3677 79.1882 69.5651 77.3662 69.1486L77.4182 69.2007ZM140.982 112.305C141.086 109.13 141.138 106.319 140.982 103.351C139.42 69.3568 143.429 34.8939 139.941 3.50239C126.458 -7.37791 117.608 9.80152 111.048 18.2351C98.3459 34.4774 83.9777 54.1036 72.1603 67.6389C73.5138 67.6909 74.6591 67.9512 75.3359 68.68C71.848 68.3677 69.9738 69.6171 66.3818 69.2007C69.5574 70.3459 74.2427 70.6583 77.9388 70.2418C82.6762 69.7212 85.5915 65.921 88.9753 66.5457C87.3094 69.7733 82.0515 69.4089 81.635 73.8859C84.3941 73.7818 85.5915 75.1874 86.8929 76.4889C79.7088 76.1245 77.2621 78.9357 73.2535 80.7057C72.6809 82.0592 74.8674 83.2045 73.2535 83.8812C70.2862 86.8486 67.423 81.018 66.4338 85.9636C69.5574 85.8074 73.4618 84.0374 76.4291 85.443C74.3988 88.7748 75.2318 89.6598 71.1712 91.7422C71.9521 91.8463 73.0974 91.5339 73.2535 92.2627C71.8479 92.7833 71.4835 94.3451 70.0779 94.8656C65.1844 92.2106 65.2885 90.2324 63.7788 86.4842C64.5597 86.38 65.705 86.6924 65.8612 85.9636C64.3515 85.1827 61.8526 85.443 61.6444 83.3607C62.3212 81.903 63.7268 81.2783 64.82 80.1851C63.5185 80.2892 62.6335 79.9248 62.2171 79.1439C63.935 78.0507 65.9132 77.2177 67.475 75.9683C64.9241 73.4695 62.3212 68.7321 58.0003 69.6692C60.2388 67.795 64.2474 65.7127 66.9544 65.973C55.5535 51.8651 42.1744 33.5403 29.6282 18.1829C22.4441 9.385 16.9258 -5.86824 0.735538 2.40912C-0.565934 44.6289 0.267006 92.0545 0.214947 135.315C6.14966 139.792 20.4138 136.981 29.6282 137.398C31.6064 135.42 32.127 132.712 32.2311 130.057C33.0641 114.596 30.6694 94.3451 31.7106 78.0506C32.96 77.8945 32.6997 76.2286 34.3135 76.4889C36.0835 76.4889 36.6041 77.6863 37.4891 78.5713C38.3741 76.593 35.0423 76.1766 36.4479 75.3957C43.1115 74.1463 50.66 71.283 54.8247 70.6583C55.2932 78.1548 44.517 74.3545 42.2265 79.0398C40.3523 78.7795 39.8838 77.478 38.0097 78.5192C41.0812 84.4018 46.8597 89.4515 51.6491 95.8548C56.0221 101.685 60.2388 110.119 65.2885 113.19C72.2644 117.407 77.8868 112.097 81.0624 107.932C88.9233 97.6769 97.2527 83.2045 106.832 75.8642C108.393 75.8642 108.81 77.0615 109.434 77.9465C108.862 83.673 109.955 90.3365 109.955 97.8851C109.955 109.963 107.092 124.331 109.434 133.077C111.517 140.834 130.154 136.305 138.848 136.773C143.585 131.671 140.514 122.249 140.93 112.097L140.982 112.305Z" fill="white"/>
<path fill-rule="evenodd" clip-rule="evenodd" d="M504.769 119.542H500.552C500.552 118.344 500.552 117.095 500.552 115.846C501.749 116.418 503.727 116.158 504.769 116.887V119.49M465.881 126.83C466.505 125.737 467.39 124.852 468.484 124.227C471.555 123.967 472.232 126.049 474.783 126.309C472.857 127.507 468.64 126.465 465.881 126.83ZM453.282 126.309C453.387 121.676 460.831 124.435 464.839 123.706C461.039 125.164 458.124 127.246 453.282 126.309ZM459.061 132.608C458.592 130.578 460.362 130.734 460.623 129.485C462.237 129.797 462.08 131.88 463.226 132.608C461.976 133.598 459.946 133.91 459.009 132.608H459.061ZM450.159 121.572C449.17 121.624 448.389 121.936 448.077 122.613C446.983 122.145 446.463 121.051 446.515 119.438C447.452 119.125 448.701 119.177 449.118 118.396C450.055 118.865 450.263 120.062 450.159 121.572ZM436.519 116.314C436.884 114.232 437.821 112.722 438.602 111.056C441.986 110.744 444.537 109.598 446.983 108.453C445.734 111.212 439.955 114.023 436.467 116.314H436.519ZM439.695 102.154C440.112 100.176 439.07 99.6552 439.174 97.9373C441.101 98.4058 441.986 97.0002 442.871 97.9373C442.871 99.9155 443.287 102.206 440.788 101.633C442.09 103.455 442.871 105.85 445.005 106.891C442.714 107.256 438.706 104.809 435.53 104.288C436.832 103.508 437.665 102.206 439.747 102.206L439.695 102.154ZM433.396 36.9763H429.7C429.023 34.061 430.689 33.4363 433.396 33.8528V36.9763ZM428.138 94.241C425.847 93.5643 424.442 91.9504 422.359 91.0654C422.516 88.6187 426.42 89.8681 426.576 87.3693C427.722 88.6708 428.554 90.2846 430.793 90.5449C430.949 92.7834 428.867 92.8354 428.19 94.241H428.138ZM421.318 66.9101C422.984 65.7648 426.784 66.806 428.659 65.869C428.294 67.7951 426.732 68.4719 425.483 69.5651C422.932 69.8254 423.036 67.4827 421.266 66.9622L421.318 66.9101ZM422.359 49.5745H427.617C428.867 53.2707 424.182 53.2186 422.359 52.1775V49.5745ZM428.659 80.5495C426.472 81.1742 426.628 79.4563 424.962 79.5084C425.483 76.8534 426.264 76.1766 429.179 76.8534C429.179 78.259 429.387 79.8728 428.659 80.5495ZM450.211 25.8877C438.914 22.1395 457.707 15.5801 450.211 25.8877V25.8877ZM454.428 17.5062C454.376 16.5171 454.063 15.7363 453.387 15.4239C456.094 8.08361 462.132 16.5692 454.428 17.5062ZM501.697 18.5475C499.355 24.1178 494.357 20.1092 491.702 17.5062C494.721 16.1006 497.897 19.016 501.697 18.5475ZM504.821 24.8466C504.925 26.3563 505.81 27.0331 505.862 28.5428C504.769 28.8551 504.352 29.8442 502.686 29.5839C501.957 28.5428 502.218 26.5645 501.645 25.3672C503.259 25.7316 503.207 24.4821 504.769 24.8466H504.821ZM509.037 20.1092C511.016 19.8489 512.317 20.3174 512.734 21.671C512.786 24.0136 510.183 24.0136 508.517 23.2327C508.465 21.9313 508.465 20.6819 509.037 20.0571V20.1092ZM511.12 33.7487C508.465 34.1131 507.476 32.8116 505.862 32.1869C507.892 30.8854 509.818 29.4798 512.682 29.0113C512.942 31.406 511.64 32.1348 511.12 33.7487ZM510.079 87.8899C504.769 88.5146 498.053 98.7181 493.264 102.102C485.403 107.568 472.336 110.327 462.289 106.319C445.994 99.7593 433.292 78.259 441.257 55.3531C447.452 37.601 470.722 24.7425 490.661 35.3625C497.116 38.7984 500.812 45.8784 507.476 45.8784C514.139 45.8784 525.905 37.0804 525.853 29.5839C525.853 25.5754 521.428 20.4215 518.512 17.5062C507.528 6.73005 486.756 -1.23489 470.722 0.170702C462.757 0.847467 454.688 2.09685 447.608 5.42862C424.806 16.1527 405.857 43.4316 409.241 78.4672C412.104 107.985 434.125 131.151 455.989 137.294C480.457 144.218 503.832 134.795 516.95 123.134C520.803 119.698 531.475 110.015 530.642 102.102C530.121 97.3645 516.69 87.161 510.131 87.8899H510.079Z" fill="white"/>
<path fill-rule="evenodd" clip-rule="evenodd" d="M654.543 72.2201C652.877 67.5869 662.664 68.0554 662.403 71.1789C661.258 72.8448 656.729 73.3133 654.543 72.2201ZM661.362 83.7772C659.28 84.1416 657.562 84.8704 655.584 85.339C655.584 84.1416 655.584 82.8922 655.584 81.6428C657.562 81.3825 658.863 80.3934 661.362 80.6016V83.7772ZM655.584 90.0763C652.356 92.1066 647.41 92.4189 647.15 97.4166H642.933C642.933 96.3754 642.933 95.3342 642.933 94.241C644.599 93.9807 644.808 95.1781 646.63 94.7616C648.035 90.5448 651.575 88.5145 655.011 86.3801C656.208 86.5884 655.219 88.983 655.532 90.0763H655.584ZM653.501 99.0304C651.679 99.8113 648.868 99.6551 646.682 100.072C648.087 97.9892 649.285 95.6466 653.501 96.3754V99.0304ZM643.506 113.19C643.454 111.889 643.454 110.64 644.027 110.015C646.786 109.702 648.816 110.119 648.764 112.618C647.775 113.555 645.276 112.982 643.506 113.138V113.19ZM636.166 105.33C637.259 102.362 641.372 102.258 643.506 104.288C642.048 106.215 638.404 106.995 636.166 105.33ZM637.727 118.448C636.322 118.448 634.916 118.448 633.511 118.448V115.845C634.916 115.845 636.322 115.845 637.727 115.845C637.727 116.73 637.727 117.615 637.727 118.448ZM611.438 108.453C589.104 111.837 573.435 95.0219 570.467 80.081C565.574 55.7695 579.942 35.7789 598.84 32.8115C615.394 30.2086 627.472 37.8613 634.031 48.0648C637.936 54.1036 641.007 63.6825 640.33 74.3545C639.393 89.0351 626.691 106.215 611.438 108.505V108.453ZM569.947 119.49H565.73C565.99 117.824 565.105 117.355 564.168 116.887C565.053 115.689 568.177 116.678 569.947 116.366V119.542V119.49ZM562.086 99.4989C560.889 99.9154 559.119 101.165 557.869 100.02C557.869 99.3428 557.869 98.614 557.869 97.9372C558.234 96.896 560.785 98.0413 560.993 96.896C562.763 96.3754 561.826 98.5098 562.034 99.4989H562.086ZM556.307 94.7616C555.37 95.074 553.236 94.1369 553.184 95.2822C552.039 95.2301 552.976 93.0436 552.663 92.1066C554.485 92.523 554.694 91.3257 556.36 91.586V94.7095L556.307 94.7616ZM549.488 84.2457C549.123 82.6319 550.373 82.6839 550.008 81.0701C551.987 81.1742 553.757 81.5386 555.266 82.1113V84.1937C554.017 85.1828 551.934 83.6731 549.488 84.1937V84.2457ZM562.607 66.3895C561.982 70.0857 551.049 71.2831 549.488 67.4307C552.715 64.7757 557.661 66.754 562.607 66.3895ZM558.91 60.0904C558.286 62.3289 554.381 62.6933 552.091 61.6522C552.403 58.3725 556.724 58.7889 558.91 60.0904ZM566.771 48.0127C563.44 49.5745 556.88 56.5503 554.173 50.6156C557.453 48.8456 562.294 48.5333 566.771 48.0127ZM559.952 46.9715C558.129 46.5551 557.921 47.7524 556.255 47.4921C555.37 46.6071 555.11 45.1495 554.173 44.3166C555.474 43.7439 560.993 43.4316 559.952 46.9195V46.9715ZM568.906 105.798C568.073 106.683 566.719 107.1 564.689 106.839C564.845 104.445 568.385 101.998 568.906 105.798ZM558.91 59.0492C558.91 58.1642 558.91 57.2792 558.91 56.4463H563.127V59.0492H558.91ZM554.173 77.9465C555.943 74.6148 558.91 73.8859 563.127 75.3436V77.9465C560.16 77.9465 557.192 77.9465 554.173 77.9465ZM559.431 88.9831C562.138 88.9831 566.199 86.276 565.21 91.0654C563.44 91.586 561.357 91.7942 559.431 92.1066V88.9831ZM574.164 32.2389V35.4144C572.81 35.4665 571.665 35.7269 571.04 36.4557C570.415 36.2475 569.947 35.7789 569.999 34.8939C568.437 34.8939 568.229 36.2475 566.823 36.4557C564.012 35.7269 562.45 33.8007 560.004 32.7595C563.179 32.6033 570.363 34.2171 574.216 32.2389H574.164ZM574.164 24.378C573.122 25.5753 572.394 27.1892 570.467 27.5536C570.259 26.2001 568.906 25.9398 568.906 24.378H574.164ZM580.463 25.4192C579.942 26.8247 578.38 27.1892 577.808 28.5427C576.35 27.918 574.788 27.3453 573.07 26.9809C574.84 25.7315 577.235 25.1589 580.411 25.4192H580.463ZM576.246 19.6406H580.463V22.2436H576.246V19.6406ZM629.294 20.1612C631.48 20.5777 632.001 19.3803 634.031 19.6406V22.8162H629.294C629.294 21.9312 629.294 21.0462 629.294 20.1612ZM637.727 30.6772C639.393 30.7813 639.966 29.7401 641.944 30.1565V32.8115C641.163 33.6444 639.237 33.2801 637.727 33.3321C637.727 32.4471 637.727 31.5621 637.727 30.7292V30.6772ZM640.851 26.4603C641.788 25.9918 643.454 26.3042 644.027 25.4192C645.172 25.4712 644.235 27.6577 644.547 28.5427C642.673 28.1262 641.996 29.7401 640.851 28.5427C640.851 27.866 640.851 27.1371 640.851 26.4603ZM655.011 43.2754C651.992 44.733 646.317 44.7851 645.016 41.7136C648.348 41.5574 653.97 39.9436 655.011 43.2754ZM651.315 55.8736C654.23 54.5201 657.041 57.8519 660.79 57.4354V60.611C655.896 60.7672 652.981 58.9451 651.315 55.8736ZM655.011 79.5083C656.521 80.9139 646.994 86.9007 645.536 81.0701C649.076 80.966 652.096 80.2371 655.011 79.5083ZM645.016 65.2963C647.931 63.4221 652.252 64.5674 653.397 67.3786C650.013 68.3677 645.953 68.9924 645.016 65.2963ZM661.831 53.2186C659.02 54.4159 653.97 53.3748 650.274 53.7392C649.128 53.6351 650.013 55.6133 649.753 56.3421C647.671 56.0298 646.682 58.3725 645.016 56.8628C645.12 56.2381 644.912 55.9256 644.495 55.8215C648.504 51.5006 656.26 49.1059 661.831 53.2186ZM655.532 25.8877C645.38 12.4044 627.94 0.222664 606.648 0.691194C606.284 0.691194 605.92 0.691194 605.607 0.691194C581.296 -0.818513 562.502 13.758 553.08 26.9809C546.312 36.4036 539.545 54.5722 539.44 70.6063C539.18 104.861 562.346 131.203 589.365 138.387C615.446 145.311 642.153 131.984 655.063 115.793C666.152 101.842 673.804 76.2807 668.182 52.2295C665.839 42.1822 660.113 32.0307 655.584 25.9398L655.532 25.8877Z" fill="white"/>
<path fill-rule="evenodd" clip-rule="evenodd" d="M759.076 74.3545C756.265 75.708 753.349 77.0615 750.174 78.0507C752.829 78.0507 754.339 79.1439 756.994 79.0918C755.796 75.708 757.931 76.3848 759.076 74.3545Z" fill="white"/>
<path fill-rule="evenodd" clip-rule="evenodd" d="M822.12 29.6879C820.923 29.3235 819.413 29.2194 818.424 28.6467V26.0438C819.621 26.4082 821.131 26.5123 822.12 27.0849C822.12 27.9699 822.12 28.8549 822.12 29.6879ZM811.084 54.3637C809.886 54.5199 809.053 54.2597 808.481 53.8432V52.2814C809.574 51.1361 810.823 52.1773 811.604 52.802C811.344 53.2185 811.084 53.6349 811.084 54.3637ZM804.264 60.1423C806.398 58.3202 809.053 59.6738 809.522 62.2247C806.398 62.9014 805.774 61.0793 804.264 60.1423ZM804.264 65.4003C804.368 64.0988 803.483 63.7344 802.702 63.2658C804.056 61.9644 807.544 62.9535 808.481 63.7865C807.908 65.14 806.346 65.5043 804.264 65.3482V65.4003ZM805.305 42.8067C806.554 42.8067 806.867 43.6917 808.481 43.3273C807.596 44.3685 807.075 45.774 805.305 45.9302C804.889 44.837 804.889 43.8999 805.305 42.7546V42.8067ZM796.351 83.777C789.843 85.1826 784.065 89.6076 775.319 86.38C778.495 83.9332 784.273 82.5797 789.479 83.777C790.468 83.0482 788.854 81.4344 790 80.0808C796.559 77.8423 801.244 76.0202 805.773 81.122C803.847 84.3496 799.735 82.9961 796.299 83.7249L796.351 83.777ZM796.871 87.9938C796.871 87.6294 796.871 87.265 796.871 86.9526C796.507 84.8182 799.474 86.0676 799.995 84.8702C801.609 84.662 801.088 86.5882 801.557 87.4732C800.203 87.8897 798.381 89.3994 796.819 87.9938H796.871ZM796.871 103.247C795.778 102.258 794.685 101.217 794.269 99.5509C794.997 98.77 796.819 97.885 797.965 99.0303C798.121 100.904 796.976 101.581 796.923 103.247H796.871ZM787.397 92.2106C787.397 91.1694 787.397 90.1282 787.397 89.087C792.394 88.4623 795.414 89.8679 797.392 92.2106C794.529 93.8244 791.041 91.5859 787.397 92.2106ZM790 102.206H786.824V99.5509C787.865 99.5509 788.906 99.5509 790 99.5509V102.206ZM780.525 104.809C781.306 104.028 782.816 103.976 784.221 103.768C784.221 104.809 785.679 104.444 785.262 105.85C783.544 107.256 781.462 105.746 780.525 104.809ZM780.004 97.4685C780.993 97.2602 780.941 95.9588 782.607 96.4273C783.857 98.6138 783.024 98.0411 782.607 100.644C781.566 99.7591 780.161 99.2385 780.004 97.4685ZM776.829 92.2106V89.087H781.566C781.566 89.972 781.566 90.857 781.566 91.6899C780.681 92.5749 778.495 92.1064 776.829 92.2106ZM751.632 71.6993C749.758 73.6776 746.114 73.8859 743.771 75.3956C742.834 72.5323 748.248 68.784 751.632 71.6993ZM749.55 59.1011C747.988 60.0382 744.708 61.3396 742.73 60.1423C742.938 55.7173 746.843 58.8929 749.55 59.1011ZM740.648 72.7405C739.138 72.4802 738.253 71.6473 738.045 70.0855C739.138 68.5758 741.533 69.0444 742.782 70.0855C742.678 71.5432 740.283 70.7623 740.7 72.7405H740.648ZM729.611 78.5191C734.973 76.697 739.346 79.352 741.689 82.2153C738.67 80.9138 728.987 85.0264 729.611 78.5191ZM723.833 87.4732C723.573 90.7529 716.336 91.2735 712.796 89.035C714.306 87.265 718.783 86.0676 721.75 87.4732C726.019 83.8811 734.193 84.9224 740.648 85.9115C736.379 87.8377 729.039 89.6076 723.833 87.4732ZM732.787 91.1694C733.62 88.7226 736.015 88.9308 737.524 90.6488C736.691 93.0955 734.297 92.8873 732.787 91.1694ZM727.529 93.2517V90.6488H731.225C731.954 91.3255 731.746 92.9394 731.746 94.345C730.444 93.8765 729.455 93.0956 727.529 93.3038V93.2517ZM729.091 99.0303C729.143 98.0411 730.861 98.7179 731.173 97.9891C732.995 97.885 732.891 99.7591 734.297 100.071C731.954 101.685 730.548 100.488 729.039 99.0303H729.091ZM715.972 98.5097C716.545 97.1041 718.054 96.7397 718.575 95.3862C719.512 95.8547 720.137 96.6356 721.178 96.9479C720.085 99.1865 718.835 98.718 715.92 98.5097H715.972ZM711.235 80.1329C715.816 78.7794 725.967 78.1026 729.611 81.6946C725.499 85.4949 713.057 85.9115 711.235 80.1329ZM725.447 70.6582C726.123 71.335 726.123 72.5844 725.447 73.2611C729.924 73.2091 734.609 71.9076 738.045 73.7818C738.097 78.2588 733.516 76.1244 729.091 76.3847C723.885 76.697 719.616 79.352 715.451 77.9464C712.848 77.0614 712.068 74.6667 710.193 73.7296C714.827 72.2199 718.835 70.1376 725.447 70.554V70.6582ZM708.111 43.8479C707.122 44.4205 705.612 44.5247 704.415 44.8891V41.7135C705.716 41.8176 706.601 41.4532 707.07 40.6723C708.944 40.1517 707.799 42.7547 708.111 43.8479ZM706.549 60.6629C704.311 60.9752 702.853 60.5067 703.426 58.06C705.664 57.7476 707.122 58.2161 706.549 60.6629ZM700.25 50.147C702.333 50.7717 705.82 48.0126 706.549 50.6676C705.04 52.1773 702.593 52.6979 700.25 53.2705V50.0949V50.147ZM695.513 41.1929C697.179 39.6831 700.198 39.5791 701.291 37.4967C703.842 40.2558 698.74 44.7329 695.513 41.1929ZM689.734 14.9031C693.066 14.5387 694.524 16.0484 697.075 16.4649C695.148 18.8075 689.943 18.4431 689.734 14.9031ZM692.91 31.1976H689.214V28.5426H692.91V31.1976ZM700.25 30.677C700.25 30.1564 699.625 30.2605 699.209 30.1564C698.949 23.3367 707.122 30.5208 700.25 30.677ZM715.503 64.8276C715.503 66.3894 714.306 66.7538 713.421 67.4306C712.12 67.5347 711.807 66.5976 710.818 66.3894C711.026 63.2659 713.525 63.7864 715.555 64.8276H715.503ZM737.056 66.3894C737.628 72.7406 725.186 72.5323 724.458 67.4306C727.06 65.3482 732.527 66.4415 737.056 66.3894ZM745.437 52.1773C745.541 53.9993 743.667 53.8952 743.355 55.3529C742.314 55.1446 743.355 52.9581 741.273 53.7911C741.793 52.3855 743.823 50.8238 745.489 52.2294L745.437 52.1773ZM750.175 26.9808C751.476 27.0329 752.361 26.7205 752.778 25.9396C753.923 25.9917 752.986 28.1782 753.298 29.1152C752.049 29.1152 751.736 30.0002 750.175 29.6358V27.0328V26.9808ZM754.912 55.8735C753.663 55.8735 752.465 55.8735 751.216 55.8735V53.2705H754.912C754.912 54.1555 754.912 55.0405 754.912 55.8735ZM756.474 69.5129C756.37 72.1158 753.038 71.8035 751.736 70.554C750.539 66.7537 756.578 66.2852 756.474 69.5129ZM764.855 59.5176C763.398 63.3179 758.66 62.9535 755.901 60.5588C757.931 59.3093 761.523 59.5176 764.855 59.5176ZM762.252 48.4811V51.6567H758.036C758.036 50.6156 758.036 49.5744 758.036 48.4811H762.252ZM758.556 12.2481C759.91 12.7687 760.326 14.3305 761.68 14.8511C760.222 15.684 757.879 16.2567 756.942 14.8511C756.682 13.1852 758.348 13.4455 758.504 12.2481H758.556ZM764.335 43.2231C765.376 43.2231 766.417 43.2231 767.458 43.2231C768.656 46.7631 763.085 46.7631 764.335 43.2231ZM772.196 56.8626C769.645 57.6435 767.406 58.7367 765.896 60.5588C764.699 57.9038 770.061 51.865 772.196 56.8626ZM769.593 64.2029C768.76 63.422 769.124 61.4958 769.072 59.9861C770.269 60.7149 770.79 62.1205 773.289 61.5479C772.248 62.6411 772.3 64.7755 769.593 64.1508V64.2029ZM770.634 71.5432C770.634 70.502 769.176 70.8664 769.593 69.4609C770.894 67.795 771.935 69.0444 773.809 69.4609C773.497 70.8664 772.352 71.5432 770.686 71.5432H770.634ZM774.33 51.5526H777.506C777.349 52.7499 777.61 53.5308 778.547 53.6349C778.182 54.8323 775.631 53.8432 774.33 54.1555V51.5526ZM758.036 68.8882C758.868 65.3482 764.074 64.9838 765.896 67.847C763.762 68.68 760.743 68.6279 758.036 68.8882ZM844.714 4.80375C842.163 -2.32831 824.306 4.23105 817.383 2.1487C812.645 4.85576 812.749 10.1658 811.084 14.7469C805.045 31.4578 795.31 48.2729 789.011 64.6714C790.781 64.8276 792.603 64.9317 793.748 65.7126C792.811 67.0141 790.52 67.0141 789.531 68.3676C796.559 68.5758 801.296 68.3676 806.346 70.9705C803.899 79.0396 789.115 74.7708 781.67 77.7902C783.961 77.0614 787.969 77.7902 788.49 80.3932C783.596 80.5493 774.903 84.662 772.716 80.9138C772.872 80.2891 775.475 79.6124 773.757 78.8315C771.883 80.2891 768.395 80.1329 766.417 81.4344C767.042 81.6947 767.614 82.007 767.979 82.4756C765.324 84.2976 759.493 85.9635 759.025 80.9138C757.983 81.7988 757.099 82.8399 755.329 82.9961C753.142 81.5385 751.58 79.3521 749.029 78.2588C747.468 79.1438 746.218 80.3411 744.292 80.9138C747.78 74.6147 755.381 72.3762 762.669 69.8773C762.565 71.4912 762.148 72.8447 761.628 74.0941C767.458 74.0941 768.551 76.2285 773.185 76.697C773.445 72.9488 779.223 74.6667 781.566 73.0008C778.338 70.8143 779.015 67.7429 778.391 65.6605C779.328 65.192 779.276 63.7344 780.473 63.5782C782.139 63.4741 783.648 63.5782 784.169 64.6193C786.408 64.6714 784.169 63.7864 783.648 63.5782C779.067 48.6373 774.278 35.7267 769.436 22.0873C767.458 16.4649 768.187 12.6126 764.699 9.48902C761.68 6.78196 754.6 6.67787 751.58 10.0096C749.55 12.2482 747.728 19.6926 746.322 24.2217C742.938 34.8938 740.231 42.2861 736.327 53.1144C734.869 57.175 733.099 65.8688 729.507 65.7126C725.915 65.5564 720.553 50.0949 718.471 45.2014C712.432 30.9893 707.122 16.7772 701.656 3.18986C693.951 1.47192 680.155 0.378682 672.763 3.18986C671.618 13.6537 676.824 21.7749 680.103 30.0002C692.858 61.9123 708.423 96.7397 721.074 127.194C722.219 129.849 722.479 133.337 723.729 135.055C726.436 138.855 733.255 140.313 737.368 136.617C741.585 132.869 743.823 121.207 746.843 112.461C748.248 108.349 749.29 103.559 750.539 99.3426C751.788 95.1258 753.09 88.5144 754.756 86.2238C758.504 80.9659 762.877 86.0155 763.658 89.92C763.554 86.0155 769.905 84.6621 769.957 89.3994C768.968 91.5338 765.584 91.3256 764.699 93.6162C766.521 101.113 768.916 108.661 771.519 116.73C774.174 124.852 778.443 146.3 790.937 137.241C795.518 133.91 799.683 119.281 802.494 112.045C812.749 85.7552 823.057 64.1508 833.521 37.9652C835.447 33.1758 837.321 28.5426 839.82 22.1914C841.746 17.3499 845.859 8.4999 844.557 4.85578L844.714 4.80375Z" fill="white"/>
<path fill-rule="evenodd" clip-rule="evenodd" d="M240.884 191.227C240.728 190.81 240.415 190.55 239.947 190.394C239.738 190.29 239.478 190.29 239.218 190.29C238.593 190.29 237.916 190.29 237.24 190.29C236.615 190.29 235.938 190.133 235.261 190.133C234.324 190.133 233.387 190.446 232.45 190.446C230.576 190.446 228.754 190.446 226.88 190.446C226.151 190.446 225.474 190.446 224.693 190.29C224.069 190.185 223.86 190.654 223.704 191.175C223.548 191.539 223.548 191.747 223.548 192.06C223.548 192.372 223.548 192.372 223.548 192.528V193.153C223.548 193.413 223.548 193.517 223.548 193.673C223.548 193.83 223.548 194.038 223.548 194.402V194.61C223.548 194.61 223.548 194.975 223.652 195.131C223.965 196.068 224.693 195.86 225.318 195.86C226.099 195.964 226.88 196.068 227.661 196.068C228.285 196.068 228.858 195.964 229.483 195.912C230.108 195.912 230.628 196.016 231.201 196.016C233.387 196.12 235.626 195.808 237.812 196.016C238.437 196.016 239.062 196.172 239.738 196.12C240.363 196.068 240.675 195.808 240.936 195.183C241.04 194.975 241.04 194.819 241.04 194.454C241.04 194.142 241.04 193.986 241.04 193.83V192.164C241.04 192.164 240.936 191.747 240.884 191.487V191.383V191.227Z" fill="white"/>
<path fill-rule="evenodd" clip-rule="evenodd" d="M296.17 193.517C295.857 193.361 295.493 193.517 295.129 193.517C294.764 193.517 294.504 193.517 294.192 193.517C293.775 193.517 293.359 193.621 292.838 193.621C292.213 193.621 292.213 193.517 291.641 193.517H290.443C289.819 193.517 289.819 193.621 289.246 193.621H286.122C285.706 193.552 285.324 193.5 284.977 193.465H283.78C283.363 193.465 282.964 193.465 282.582 193.465C282.166 193.465 281.906 193.726 281.906 194.09V195.391C281.906 195.704 282.062 196.068 282.478 196.068C282.634 196.068 282.739 195.964 282.895 195.964C282.999 195.964 283.207 195.964 283.363 195.964H283.988C284.509 195.964 284.925 196.12 285.237 196.276C285.289 196.276 285.237 196.276 285.342 196.276C285.602 196.38 285.966 196.589 286.122 197.057C286.227 197.318 286.227 197.682 286.227 198.15C286.227 198.775 286.331 198.775 286.331 199.452C286.331 200.129 286.331 200.129 286.331 200.805C286.331 201.482 286.435 201.482 286.435 202.159C286.435 202.836 286.331 203.513 286.331 203.565C286.331 203.929 286.331 204.137 286.331 204.241C286.331 204.45 286.331 204.45 286.331 204.762C286.331 204.97 286.435 205.074 286.227 205.231C286.07 205.387 286.07 205.439 285.862 205.543C285.498 205.647 285.185 205.751 284.873 205.855L284.144 206.011C283.884 206.011 283.676 206.116 283.415 206.116C282.999 206.116 282.478 206.116 282.062 206.116C281.697 206.116 281.437 205.959 281.177 205.907C280.708 205.803 280.344 205.699 279.927 205.491C279.563 205.335 279.147 205.126 278.834 204.918C278.47 204.658 278.105 204.398 277.845 204.137C277.481 203.825 277.168 203.565 276.856 203.252C276.648 202.888 276.492 202.523 276.231 202.159C276.023 201.795 275.711 201.482 275.555 201.118C275.346 200.701 275.242 200.337 275.086 199.92C274.93 199.556 274.774 199.14 274.669 198.775C274.513 198.359 274.357 197.942 274.253 197.578C274.149 197.161 274.097 196.745 273.993 196.328L273.732 195.079C273.628 194.61 273.628 194.194 273.576 193.83C273.576 193.413 273.576 192.997 273.576 192.528C273.576 192.112 273.576 191.695 273.576 191.279C273.576 190.862 273.576 190.394 273.68 189.977C273.68 189.613 273.784 189.196 273.837 188.78C273.837 188.415 273.993 188.051 274.045 187.635C274.149 187.27 274.045 186.802 274.149 186.437C274.253 186.073 274.409 185.656 274.513 185.292C274.669 184.928 274.826 184.511 274.93 184.199C275.086 183.834 275.19 183.47 275.346 183.105C275.554 182.741 275.711 182.377 275.867 182.012C276.075 181.648 276.335 181.388 276.596 181.075C276.804 180.711 277.116 180.398 277.377 180.138C277.689 179.826 278.105 179.565 278.366 179.357C278.73 179.097 279.094 178.837 279.563 178.68C279.927 178.524 280.396 178.472 280.76 178.368C281.281 178.212 281.802 178.16 282.478 178.16C282.895 178.16 283.259 178.16 283.676 178.16C284.04 178.16 284.457 178.316 284.821 178.368C285.185 178.472 285.55 178.628 285.914 178.785C286.331 178.889 286.643 179.097 287.007 179.253C287.372 179.409 287.736 179.513 288.049 179.722C288.569 180.034 288.986 180.398 289.298 180.815C289.715 181.335 289.975 181.856 290.287 182.377C290.443 182.741 290.652 183.105 290.86 183.574C291.016 183.938 291.12 184.355 291.224 184.771L291.485 186.073C291.485 186.073 291.485 186.489 291.485 186.697V186.906C291.485 187.322 291.797 187.635 292.161 187.635C292.786 187.635 292.786 187.635 293.359 187.635C293.463 187.635 293.463 187.635 293.515 187.583C293.671 187.583 293.671 187.583 293.827 187.478C294.139 187.374 294.452 187.166 294.452 186.854C294.452 186.698 294.348 186.698 294.348 186.489V185.292C294.348 184.928 294.348 184.459 294.348 184.147C294.348 183.678 294.348 183.314 294.348 182.949C294.348 182.585 294.348 182.168 294.348 181.752C294.348 181.335 294.348 180.919 294.348 180.555C294.348 180.138 294.348 179.722 294.348 179.357C294.348 178.941 294.348 178.524 294.348 178.16C294.348 177.743 294.348 177.327 294.348 177.015C294.348 176.858 294.348 176.858 294.348 176.754C294.348 176.39 293.983 176.078 293.567 176.078H292.057C292.057 176.078 291.693 176.182 291.537 176.338C291.537 176.442 291.432 176.546 291.432 176.65C291.432 176.65 291.432 176.754 291.328 176.806C291.328 176.91 291.328 176.963 291.328 177.015C291.328 177.275 291.224 177.483 291.12 177.691C291.12 177.848 291.12 177.952 291.12 178.108C291.068 178.108 291.068 178.264 291.016 178.316C291.016 178.368 291.016 178.472 290.912 178.472C290.912 178.472 290.912 178.472 290.808 178.368C290.808 178.316 290.704 178.264 290.652 178.264L290.339 178.056C290.339 178.056 289.923 177.743 289.767 177.691C289.402 177.431 289.038 177.223 288.621 176.963L287.424 176.442C287.007 176.286 286.643 176.13 286.227 175.973C285.81 175.869 285.394 175.765 284.977 175.661C284.561 175.557 284.144 175.453 283.676 175.401C282.739 175.297 281.281 175.193 280.344 175.193C278.938 175.193 278.053 175.192 276.596 175.401C275.971 175.505 275.398 175.713 274.826 175.817C274.409 175.921 273.993 176.13 273.524 176.234L272.327 176.754C271.91 176.963 271.494 177.119 271.077 177.327C270.713 177.535 270.401 177.691 269.984 177.952L268.891 178.732C268.527 178.993 268.318 179.409 268.006 179.722C267.642 180.034 267.381 180.294 267.173 180.607C266.861 180.971 266.652 181.283 266.444 181.648C266.132 182.012 265.819 182.325 265.663 182.689C265.403 183.053 265.247 183.418 265.039 183.834C264.882 184.199 264.83 184.615 264.674 184.98C264.518 185.396 264.31 185.76 264.206 186.177L263.945 187.426C263.841 187.843 263.841 188.259 263.737 188.624C263.737 189.04 263.529 189.457 263.477 189.873C263.477 190.237 263.477 190.706 263.477 191.123C263.477 191.487 263.477 191.955 263.477 192.372V193.569C263.477 193.986 263.633 194.402 263.633 194.767L263.737 195.964C263.893 196.328 263.893 196.745 263.997 197.109C264.102 197.526 264.154 197.942 264.258 198.307C264.362 198.723 264.622 199.035 264.778 199.4C264.882 199.816 265.091 200.181 265.195 200.545C265.351 200.91 265.611 201.274 265.819 201.586C266.028 201.951 266.184 202.367 266.444 202.68C266.652 203.044 266.965 203.356 267.277 203.617C267.537 203.929 267.798 204.189 268.162 204.502C268.474 204.762 268.735 205.074 269.099 205.335C269.412 205.595 269.776 205.855 270.088 206.116L271.286 206.74C271.65 206.896 272.014 207.157 272.431 207.261C272.795 207.417 273.212 207.625 273.628 207.729C274.045 207.833 274.565 207.885 274.93 208.042C275.346 208.146 275.763 208.146 276.231 208.146C276.648 208.146 277.116 208.25 277.533 208.25C277.949 208.25 279.823 208.354 280.24 208.354H281.073C281.333 208.354 283.103 208.25 283.363 208.25C283.572 208.25 283.728 208.25 283.988 208.25C284.196 208.25 284.404 208.25 284.613 208.25C285.029 208.146 285.394 208.042 285.81 207.938C286.174 207.833 286.591 207.729 286.955 207.573C287.32 207.417 287.736 207.313 288.101 207.157C288.517 207 288.777 206.74 289.194 206.532C289.506 206.324 289.871 206.115 290.183 205.907C290.547 205.595 291.12 205.751 291.224 206.272C291.224 206.48 291.224 206.688 291.224 206.948C291.224 207.053 291.276 207.053 291.276 207.157C291.276 207.521 291.641 207.833 292.005 207.833C292.838 207.833 292.838 207.833 293.671 207.833C294.139 207.833 294.452 207.469 294.452 207.157C294.452 206.584 294.348 206.584 294.348 206.011C294.348 205.439 294.348 205.439 294.244 204.918C294.244 204.345 294.348 204.346 294.348 203.773C294.348 203.2 294.244 203.2 294.244 202.628C294.244 202.107 294.244 202.107 294.244 201.534C294.244 200.91 294.244 200.91 294.244 200.337C294.244 199.764 294.244 199.712 294.244 199.14C294.244 198.567 294.244 198.515 294.244 197.942C294.244 197.37 294.244 197.318 294.244 196.745C294.244 196.589 294.244 196.485 294.244 196.328C294.244 196.016 294.504 195.86 294.816 195.756C294.972 195.756 295.129 195.756 295.285 195.756H295.545C295.91 195.756 296.222 195.443 296.222 195.131C296.222 194.506 296.222 194.454 296.222 193.83C296.222 193.517 296.014 193.309 295.805 193.205" fill="white"/>
<path fill-rule="evenodd" clip-rule="evenodd" d="M318.658 194.038C318.034 194.142 318.034 194.142 317.357 194.142H316.68C316.055 194.142 316.055 194.038 315.379 194.038C314.754 194.038 314.754 194.038 314.181 194.038C313.557 194.038 313.557 194.038 312.88 194.038C312.203 194.038 311.839 193.517 311.995 192.945C312.203 192.424 312.307 192.476 312.567 191.903C312.724 191.383 312.672 191.331 312.88 190.81C313.036 190.29 313.088 190.29 313.348 189.769C313.557 189.196 313.609 189.248 313.817 188.728C313.921 188.346 314.06 187.982 314.233 187.635L314.65 186.541C314.806 186.177 314.858 186.021 315.222 186.021C315.535 186.021 315.587 186.125 315.743 186.489C316.003 187.114 315.951 187.114 316.16 187.739C316.368 188.363 316.316 188.363 316.576 188.936C316.75 189.353 316.906 189.752 317.045 190.133C317.253 190.758 317.357 190.706 317.617 191.331L318.086 192.58C318.294 193.205 318.346 193.153 318.606 193.778C318.606 193.882 318.815 193.986 318.71 193.986M334.224 205.543C334.224 205.543 334.016 205.439 333.912 205.387C333.547 205.074 333.235 204.658 332.923 204.293C332.714 203.981 332.454 203.773 332.298 203.513C332.142 203.2 332.038 202.836 331.881 202.575C331.881 202.575 331.777 202.107 331.465 201.43C331.361 201.066 331.152 200.701 330.996 200.233L330.528 199.036C330.372 198.671 330.215 198.307 330.111 197.89C329.955 197.526 329.695 197.161 329.539 196.745C329.435 196.38 329.278 195.964 329.122 195.548C328.966 195.183 328.862 194.767 328.706 194.35C328.55 193.986 328.445 193.569 328.237 193.153C328.081 192.736 327.873 192.424 327.717 192.008C327.508 191.643 327.404 191.175 327.248 190.81C327.144 190.446 326.936 190.081 326.78 189.665C326.623 189.248 326.467 188.832 326.363 188.468C326.207 188.103 325.999 187.687 325.79 187.27C325.686 186.906 325.478 186.489 325.374 186.125C325.218 185.761 325.166 185.344 324.958 184.98C324.853 184.563 324.593 184.199 324.489 183.782C324.333 183.418 324.177 183.001 324.073 182.637C323.968 182.273 323.76 181.856 323.604 181.44C323.448 181.075 323.292 180.659 323.187 180.242C323.031 179.878 322.719 179.513 322.615 179.149L322.198 177.952C322.042 177.535 321.886 177.067 321.782 176.754C321.626 176.338 321.105 176.13 320.637 176.338C319.804 176.702 316.888 176.702 316.055 177.015C315.795 177.119 315.587 177.223 315.535 177.379C315.275 178.004 315.327 178.004 315.066 178.576C314.806 179.201 314.858 179.201 314.65 179.774C314.442 180.398 314.494 180.398 314.233 180.971L313.765 182.116C313.505 182.741 313.452 182.689 313.244 183.262C313.105 183.609 312.967 183.991 312.828 184.407C312.689 184.823 312.533 185.223 312.359 185.604C312.151 186.177 312.203 186.177 311.891 186.802C311.682 187.374 311.63 187.374 311.422 187.947C311.214 188.572 311.162 188.52 310.902 189.144C310.693 189.717 310.797 189.769 310.537 190.342C310.277 190.914 310.225 190.914 310.017 191.487C309.808 192.06 309.756 192.06 309.548 192.632C309.288 193.205 309.236 193.205 309.027 193.778C308.819 194.402 308.871 194.402 308.663 194.975C308.455 195.548 308.403 195.548 308.195 196.12C307.934 196.745 308.038 196.745 307.778 197.318C307.57 197.89 307.518 197.89 307.31 198.411C307.101 198.827 306.928 199.226 306.789 199.608C306.581 200.233 306.529 200.181 306.268 200.753C306.06 201.326 306.164 201.378 305.904 201.899C305.696 202.523 305.644 202.523 305.383 203.044C305.383 203.096 305.383 203.096 305.279 203.148C305.123 203.513 304.915 203.825 304.655 204.085C304.342 204.45 304.082 204.71 303.874 204.918C303.509 205.178 303.145 205.439 302.624 205.543C302.208 205.543 301.739 205.855 301.739 206.324C301.739 206.74 301.739 206.74 301.739 207.157C301.739 207.573 302.156 207.938 302.676 207.938H303.926C304.55 207.938 304.55 207.938 305.175 207.938C305.8 207.938 305.8 208.042 306.425 208.042H310.173C310.85 208.042 310.797 207.938 311.474 207.938C311.943 207.938 312.359 207.625 312.359 207.209C312.359 206.792 312.359 206.74 312.359 206.376C312.359 206.116 312.203 205.855 312.047 205.751C311.735 205.543 311.526 205.595 311.214 205.595C310.85 205.595 310.589 205.439 310.225 205.439C309.86 205.335 309.548 205.283 309.132 205.022C308.819 204.814 308.559 204.606 308.455 204.189C308.351 203.877 308.351 203.617 308.351 203.252C308.351 202.836 308.351 202.523 308.559 202.107C308.767 201.743 308.819 201.378 308.975 201.014C309.184 200.389 309.34 200.441 309.6 199.816C309.86 199.192 309.808 199.192 310.017 198.567C310.277 197.942 310.173 197.942 310.485 197.37C310.485 197.213 310.589 197.213 310.641 197.005C310.797 196.641 311.11 196.433 311.422 196.433C312.099 196.433 312.099 196.537 312.62 196.537C313.244 196.537 313.244 196.537 313.869 196.537H315.066C315.691 196.537 315.691 196.433 316.316 196.433C316.94 196.433 316.94 196.537 317.513 196.537C318.086 196.537 317.513 196.537 318.138 196.537C318.762 196.537 318.762 196.537 319.335 196.537C319.7 196.537 320.064 196.745 320.22 197.057C320.359 197.439 320.48 197.803 320.585 198.151C320.723 198.532 320.88 198.897 321.053 199.244C321.157 199.591 321.279 199.955 321.418 200.337C321.522 200.649 321.574 200.962 321.73 201.222C321.886 201.638 322.146 201.951 322.302 202.419C322.459 202.888 322.511 203.356 322.511 203.877C322.511 204.293 322.511 204.762 322.25 205.074C321.99 205.387 321.574 205.595 321.105 205.699C320.689 205.699 320.272 205.491 319.908 205.699C319.647 205.855 319.491 206.116 319.491 206.428V207.261C319.491 207.677 319.856 208.146 320.324 208.146C321.053 208.146 321.053 208.094 321.678 208.094C322.355 208.094 322.355 208.094 323.083 208.094C323.812 208.094 323.76 208.094 324.489 208.094C325.218 208.094 325.166 208.198 325.79 208.198C326.467 208.198 327.04 208.094 327.717 208.094C328.393 208.094 328.393 208.094 329.122 208.094C329.851 208.094 329.799 208.198 330.476 208.198H334.849C335.317 208.198 335.63 207.781 335.63 207.365C335.63 206.948 335.734 206.948 335.734 206.584C335.734 206.272 335.578 206.011 335.317 205.855C335.005 205.699 334.693 205.699 334.38 205.595L334.224 205.543Z" fill="white"/>
<path fill-rule="evenodd" clip-rule="evenodd" d="M364.159 197.213C364.055 196.849 363.846 196.484 363.638 196.068C363.43 195.704 363.17 195.443 362.909 195.027C362.701 194.715 362.493 194.35 362.233 193.986C361.972 193.673 361.66 193.413 361.348 193.101L360.411 192.216C360.046 191.955 359.786 191.643 359.369 191.383C359.057 191.175 358.693 190.966 358.276 190.758C357.912 190.55 357.599 190.29 357.235 190.029C356.871 189.873 356.506 189.613 356.09 189.404C355.725 189.248 355.257 189.092 354.892 188.936C354.528 188.78 354.216 188.52 353.903 188.311C353.539 188.155 353.174 187.999 352.81 187.791C352.446 187.582 352.133 187.426 351.769 187.166L350.832 186.437C350.519 186.177 349.686 186.021 349.478 185.708C349.218 185.396 347.031 184.303 347.448 181.439C347.448 180.815 347.864 180.398 347.864 180.346C348.021 180.086 348.177 179.722 348.437 179.513C348.645 179.305 349.01 179.097 349.218 178.941C349.53 178.68 349.999 178.732 350.311 178.628C350.728 178.524 351.092 178.472 351.509 178.472C351.873 178.472 352.289 178.472 352.654 178.472C353.07 178.576 353.487 178.576 353.747 178.68C354.424 178.837 355.881 179.149 356.35 179.565C356.766 179.826 357.704 180.19 358.068 180.659C358.432 181.023 358.693 181.387 358.953 181.856C359.161 182.325 359.369 182.741 359.578 183.262C359.682 183.678 359.786 184.147 359.942 184.563C360.046 184.98 360.098 185.552 360.098 186.021C360.098 186.385 360.463 186.697 360.827 186.697C361.608 186.697 361.608 186.697 362.285 186.697C362.701 186.697 362.909 186.437 362.909 186.073C362.909 185.5 363.014 185.5 363.014 184.875C363.014 184.303 363.014 184.303 363.014 183.73C363.014 183.105 363.014 183.105 363.014 182.533C363.014 181.96 363.014 181.96 363.014 181.387V180.242C363.014 179.67 363.118 179.67 363.118 179.097C363.118 178.524 363.014 178.524 363.014 177.952C363.014 177.379 363.118 177.379 363.118 176.754C363.118 176.39 362.753 176.129 362.389 176.129C361.712 176.129 361.712 176.129 360.983 176.129C360.671 176.129 360.411 176.286 360.411 176.598C360.359 176.858 360.254 177.067 360.254 177.327C360.254 177.587 360.359 177.847 360.098 177.9C359.942 178.004 359.734 178.056 359.578 177.952L359.005 177.587C358.693 177.431 358.328 177.275 358.016 177.119L357.183 176.806C356.871 176.806 356.558 176.702 356.298 176.65C355.361 176.39 354.32 176.077 353.383 175.921C352.446 175.817 351.509 175.765 350.519 175.817C350.103 175.817 349.374 175.817 348.958 175.921C347.969 176.13 346.771 176.442 345.834 176.806C344.897 177.223 343.596 177.795 342.867 178.42C342.502 178.68 342.242 178.993 341.982 179.305C341.669 179.669 341.513 179.982 341.253 180.398C341.149 180.763 340.941 181.075 340.836 181.492C340.732 181.908 340.576 182.22 340.524 182.637C340.42 183.001 340.524 183.418 340.524 183.782C340.524 184.147 340.42 184.563 340.524 184.98L340.732 186.177C340.836 186.541 340.836 186.906 340.941 187.374C341.097 187.739 341.305 188.103 341.513 188.467C341.669 188.832 341.826 189.196 342.138 189.561C342.346 189.873 342.606 190.185 342.919 190.498C343.179 190.81 343.544 191.018 343.856 191.331C344.168 191.591 344.481 191.799 344.793 192.06C345.157 192.268 345.47 192.528 345.834 192.736C346.199 192.892 346.303 192.997 346.771 193.205C347.136 193.361 347.552 193.621 347.916 193.83C348.281 193.986 348.593 194.35 348.958 194.558L350.103 195.183C349.791 194.975 351.404 196.016 352.237 196.589C352.602 196.849 352.862 197.213 353.174 197.474L354.059 198.411C354.32 198.775 354.476 199.087 354.684 199.452C354.944 199.816 355.049 200.233 355.153 200.649C355.257 201.066 355.413 201.43 355.361 201.847C355.361 202.055 355.361 202.575 355.257 203.044C355.153 203.356 355.153 203.669 355.049 203.929C354.892 204.293 354.736 204.502 354.528 204.814C354.164 205.23 353.799 205.595 353.331 205.803C353.018 205.907 352.758 205.907 352.446 205.959C352.081 205.959 351.613 206.063 351.248 206.063C350.832 206.063 350.363 206.063 349.895 206.063H349.686C349.27 205.959 348.697 205.855 348.281 205.699C348.021 205.595 347.76 205.543 347.552 205.387C347.448 205.387 347.24 205.126 347.136 205.126C346.719 204.762 346.042 204.189 345.73 203.773C345.418 203.408 345.053 203.044 344.793 202.627C344.533 202.211 344.324 201.742 344.116 201.222C344.012 200.805 343.804 200.337 343.7 199.92C343.596 199.504 343.596 198.983 343.544 198.515C343.491 198.046 343.283 197.109 343.387 196.641C343.387 196.432 343.387 196.276 343.283 196.068C343.179 195.912 342.971 195.808 342.763 195.808H341.201C340.836 195.808 340.576 196.12 340.576 196.485V197.578C340.576 198.15 340.576 198.567 340.576 199.087V200.233C340.576 200.753 340.472 200.753 340.472 201.326C340.472 201.899 340.472 201.899 340.472 202.471C340.472 203.148 340.472 203.148 340.472 203.721C340.472 204.137 340.437 204.571 340.368 205.022C340.368 205.647 340.472 205.647 340.472 206.324V207.625C340.472 207.99 340.68 208.198 341.045 208.198C341.669 208.198 341.669 208.302 342.398 208.302C342.711 208.302 343.023 208.042 343.075 207.781C343.179 207.417 343.075 207.105 343.179 206.844C343.179 206.74 343.335 206.324 343.491 206.272C343.491 206.272 343.596 206.272 343.752 206.272C344.116 206.428 344.324 206.688 344.689 206.896C344.897 207 344.949 206.896 345.105 207C345.574 207.261 346.355 207.677 346.875 207.937C347.24 208.042 347.5 208.25 347.864 208.354C348.229 208.458 348.593 208.51 349.01 208.614L351.509 208.875C351.925 208.875 352.341 208.875 352.706 208.875C353.07 208.875 354.476 208.875 354.788 208.875C355.205 208.875 355.517 208.875 355.934 208.77C356.35 208.666 356.766 208.614 357.131 208.562C357.547 208.458 357.912 208.354 358.276 208.198C359.109 207.885 359.838 207.469 360.567 207C361.191 206.584 362.024 206.115 362.545 205.595C362.909 205.282 363.222 204.918 363.43 204.45C363.69 204.085 363.846 203.773 364.055 203.356C364.211 202.94 364.211 202.523 364.263 202.159C364.419 201.742 364.575 201.378 364.627 201.014C364.627 200.597 364.627 200.233 364.627 199.868C364.627 199.452 364.627 199.035 364.523 198.619C364.419 198.202 364.419 197.838 364.211 197.422" fill="white"/>
<path fill-rule="evenodd" clip-rule="evenodd" d="M400.027 178.42C400.027 177.795 400.027 177.795 400.027 177.119C400.027 176.65 399.662 176.338 399.142 176.338C398.517 176.338 397.84 176.338 397.215 176.338C396.539 176.338 396.539 176.338 395.862 176.338C395.185 176.338 395.237 176.338 394.56 176.338C393.884 176.338 393.936 176.338 393.259 176.338C392.582 176.338 392.27 176.338 391.593 176.338H389.875C389.25 176.338 389.198 176.338 388.574 176.338H387.272C386.648 176.338 386.595 176.338 385.919 176.338C385.294 176.338 385.294 176.234 384.617 176.234C383.94 176.234 383.993 176.234 383.316 176.234C382.639 176.234 382.639 176.338 381.962 176.338H380.661C380.036 176.338 379.724 176.338 379.047 176.338C378.37 176.338 378.11 176.234 377.485 176.234C376.86 176.234 376.86 176.338 376.132 176.338C375.507 176.338 375.507 176.338 374.83 176.338H373.529C372.904 176.338 372.435 176.234 371.759 176.234C371.29 176.234 370.926 176.65 370.926 177.119C370.926 177.743 370.77 177.743 370.77 178.42V179.67C370.77 180.346 370.77 180.346 370.77 180.971C370.77 181.648 370.77 181.648 370.77 182.272C370.77 182.897 370.874 182.897 370.874 183.522C370.874 184.147 370.926 184.147 370.926 184.771C370.926 185.396 370.822 185.396 370.822 186.073C370.822 186.489 371.238 186.854 371.759 186.854C372.331 186.854 372.748 186.854 373.268 186.854C373.425 186.854 373.633 186.749 373.737 186.645C374.049 186.385 374.153 186.021 374.205 185.604C374.205 185.292 374.205 185.032 374.205 184.719C374.205 184.303 374.205 183.834 374.205 183.522L374.466 182.272C374.622 181.804 374.83 181.492 375.038 181.127C375.195 180.763 375.403 180.346 375.663 180.086C375.975 179.722 376.288 179.461 376.704 179.253C377.069 179.045 377.485 178.889 377.902 178.785C378.318 178.785 378.995 178.785 379.463 178.785C380.244 178.785 379.62 178.785 380.452 178.785C380.973 178.785 380.869 178.941 380.869 179.409V183.157C380.869 183.678 380.765 183.678 380.765 184.303C380.765 184.927 380.765 184.927 380.765 185.5C380.765 186.125 380.765 186.125 380.765 186.697V189.144C380.765 189.717 380.661 189.717 380.661 190.342V191.539C380.661 192.164 380.661 192.164 380.661 192.684V193.882C380.661 194.506 380.661 194.506 380.661 195.079C380.661 195.652 380.661 195.652 380.661 196.276C380.661 196.901 380.557 196.901 380.557 197.474C380.557 198.098 380.557 198.098 380.557 198.671C380.557 199.244 380.557 199.244 380.557 199.868V201.066C380.557 201.69 380.557 201.69 380.557 202.263V203.46C380.557 203.46 380.557 203.825 380.557 204.033C380.4 204.449 379.984 204.71 379.62 204.918C379.255 205.178 378.787 205.387 378.37 205.491L377.537 205.647C377.537 205.647 377.017 205.543 376.756 205.647C376.288 205.647 376.027 206.115 376.027 206.532C376.027 206.844 375.923 206.844 375.923 207.105C375.923 207.573 376.392 207.937 376.808 207.937C377.485 207.937 377.485 208.042 378.162 208.042H379.463C380.192 208.042 380.192 207.937 380.817 207.937H382.483C383.107 207.937 384.305 208.042 384.93 208.042C385.554 208.042 385.554 207.937 386.283 207.937C386.96 207.937 388.157 208.042 388.782 208.042C389.459 208.042 389.875 207.885 390.5 207.885C391.177 207.885 391.177 207.885 391.853 207.885C392.53 207.885 392.53 207.885 393.207 207.885C393.675 207.885 394.04 207.573 394.04 207.105C394.04 206.792 394.04 206.792 394.04 206.532C394.04 206.272 393.884 205.907 393.571 205.803C393.311 205.595 392.999 205.699 392.686 205.699C392.374 205.699 392.01 205.595 391.697 205.543C391.229 205.439 390.76 205.282 390.344 205.074C389.979 204.866 389.667 204.502 389.511 204.085C389.407 203.877 389.407 203.669 389.407 203.512V202.315C389.407 201.742 389.407 201.742 389.407 201.118C389.407 200.493 389.407 200.493 389.407 199.92C389.407 199.348 389.511 199.296 389.511 198.723V197.526C389.511 196.901 389.511 196.901 389.511 196.328C389.511 195.756 389.511 195.756 389.511 195.131C389.511 194.506 389.511 194.506 389.511 193.934V192.736C389.511 192.112 389.407 192.112 389.407 191.539C389.407 190.966 389.407 190.914 389.407 190.342C389.407 189.769 389.407 189.769 389.407 189.144C389.407 188.519 389.407 188.519 389.407 187.947V186.75C389.407 186.125 389.407 186.125 389.407 185.552C389.407 184.927 389.303 184.927 389.303 184.355C389.303 183.782 389.303 183.73 389.303 183.209C389.303 182.585 389.303 182.585 389.303 182.012C389.303 181.439 389.303 181.387 389.303 180.815C389.303 180.242 389.303 180.19 389.303 179.565C389.303 179.097 389.198 178.732 389.667 178.732C390.448 178.732 390.396 178.837 391.177 178.837C391.593 178.837 391.801 178.837 392.166 178.837C392.582 178.941 392.999 179.149 393.363 179.357C393.728 179.565 394.092 179.774 394.3 180.086C394.56 180.398 394.925 180.711 395.133 181.075C395.289 181.44 395.445 181.804 395.602 182.272C395.706 182.637 395.706 183.105 395.706 183.522C395.81 183.886 395.81 184.251 395.862 184.719C395.862 185.084 395.862 185.552 395.862 185.969C395.862 186.437 396.278 186.854 396.851 186.854C397.424 186.854 398.048 186.854 398.621 186.854C399.09 186.854 399.506 186.437 399.506 185.969C399.506 185.344 399.61 185.344 399.61 184.667C399.61 183.99 399.61 183.99 399.61 183.418C399.61 182.845 399.61 182.793 399.61 182.168C399.61 181.544 399.506 181.544 399.506 180.867C399.506 180.19 399.61 180.242 399.61 179.617C399.61 178.941 399.506 178.941 399.506 178.316" fill="white"/>
<path fill-rule="evenodd" clip-rule="evenodd" d="M426.524 186.385C426.524 186.802 426.368 187.166 426.264 187.53C426.16 187.999 425.899 188.415 425.691 188.884C425.535 189.248 425.327 189.769 425.066 190.081C424.702 190.446 424.494 190.706 424.077 190.81C423.713 190.966 423.297 191.123 422.932 191.227C422.359 191.331 421.995 191.331 421.735 191.331C421.162 191.331 420.642 191.331 420.017 191.331C419.6 191.331 419.288 190.966 419.288 190.602C419.288 189.977 419.288 189.977 419.288 189.353C419.288 188.728 419.392 188.728 419.392 188.155C419.392 187.531 419.392 187.53 419.392 186.958C419.392 186.385 419.392 186.333 419.392 185.76C419.392 185.188 419.392 185.136 419.392 184.511V183.314C419.392 182.689 419.288 182.689 419.392 182.116C419.392 181.492 419.496 181.492 419.496 180.919C419.496 180.346 419.6 179.93 419.913 179.67C420.225 179.357 420.642 179.253 421.266 179.149C421.683 179.149 421.526 179.045 422.099 179.045C422.516 179.045 422.099 179.045 422.516 179.045C422.932 179.045 422.776 179.045 423.14 179.149C423.505 179.253 423.817 179.357 424.181 179.513C424.494 179.722 424.806 179.982 425.066 180.242C425.327 180.503 425.743 180.815 426.004 181.283C426.16 181.648 426.264 182.116 426.472 182.585L426.732 183.938C426.732 184.355 426.889 184.771 426.837 185.344C426.837 185.76 426.837 186.125 426.837 186.489M443.131 207.209C443.131 207.209 443.131 207.053 443.131 207C443.131 206.896 443.131 206.688 443.131 206.584C443.131 206.48 443.131 206.48 442.975 206.428C442.975 206.324 442.871 206.324 442.819 206.272C442.714 206.272 442.662 206.272 442.558 206.272L442.298 206.168H442.194H442.09C441.986 206.168 441.934 206.168 441.882 206.168L441.309 206.011C441.309 206.011 440.944 206.011 440.84 206.011C440.476 206.011 440.164 205.803 439.799 205.647C439.435 205.491 439.07 205.23 438.706 204.97C438.394 204.762 437.977 204.502 437.665 204.293C437.3 203.981 437.092 203.617 436.832 203.304C436.519 202.992 436.207 202.732 435.947 202.419C435.634 202.055 435.478 201.69 435.218 201.378C435.01 201.118 434.801 200.858 434.593 200.545C434.385 200.285 434.125 200.077 433.969 199.764C433.708 199.4 433.396 199.088 433.188 198.723C432.927 198.307 432.771 197.942 432.511 197.578C432.251 197.213 432.042 196.901 431.782 196.485C431.522 196.12 431.314 195.808 431.001 195.391C430.793 195.027 430.272 193.986 430.064 193.673C429.856 193.309 430.429 193.309 430.481 193.153C430.897 192.997 431.105 192.788 431.418 192.58C431.782 192.424 432.199 192.216 432.563 192.008C432.875 191.799 433.084 191.435 433.448 191.175L434.333 190.342C434.541 190.029 434.697 189.717 434.958 189.353C435.114 188.988 435.374 188.728 435.53 188.363C435.687 187.999 435.791 187.635 435.895 187.218C435.999 186.802 435.999 186.437 436.051 186.021C436.051 185.656 436.155 185.292 436.155 184.875C436.155 184.459 436.155 184.095 436.051 183.678C436.051 183.314 435.895 182.949 435.686 182.533C435.582 182.168 435.53 181.804 435.322 181.44C435.166 181.075 434.906 180.763 434.645 180.45C434.437 180.138 434.229 179.826 433.864 179.565C433.552 179.305 433.188 179.097 432.823 178.837C432.459 178.628 432.042 178.42 431.678 178.212C431.262 178.056 430.897 177.795 430.481 177.691C430.116 177.535 429.648 177.379 429.283 177.275C428.867 177.171 427.201 176.963 426.784 176.91C426.316 176.806 425.899 176.754 425.535 176.702C425.014 176.702 423.869 176.702 423.453 176.702C422.724 176.702 422.203 176.702 422.151 176.702H419.704C419.028 176.702 418.819 176.702 418.143 176.702C417.761 176.702 417.327 176.702 416.841 176.702H415.488C414.863 176.702 412.416 176.806 411.687 176.806H410.334C409.709 176.806 409.709 176.65 409.032 176.65C408.408 176.65 408.408 176.754 407.679 176.754C407.314 176.754 407.002 177.067 407.002 177.431C407.002 177.9 406.898 177.9 406.898 178.316C406.898 178.524 407.002 178.733 407.21 178.837C407.366 178.889 407.575 178.889 407.679 178.941C407.991 179.045 408.043 179.045 408.304 179.045C408.512 179.045 408.772 179.045 408.928 179.149C409.293 179.253 409.605 179.409 409.917 179.67C410.126 179.878 410.282 180.19 410.438 180.555C410.438 180.815 410.542 180.919 410.542 181.127C410.542 181.752 410.542 181.752 410.542 182.325V183.522C410.542 184.095 410.698 184.095 410.698 184.667C410.698 185.24 410.698 185.292 410.698 185.865C410.698 186.437 410.594 186.489 410.594 187.062C410.594 187.687 410.698 187.635 410.698 188.259V189.457C410.698 190.081 410.698 190.081 410.698 190.654C410.698 191.227 410.594 191.279 410.594 191.851C410.594 192.424 410.698 192.476 410.698 192.997V194.194C410.698 194.819 410.698 194.819 410.698 195.391C410.698 195.964 410.594 196.016 410.594 196.589C410.594 197.213 410.594 197.213 410.594 197.786C410.594 198.359 410.594 198.411 410.594 198.983V201.43C410.594 202.055 410.594 202.055 410.594 202.628C410.594 203.2 410.594 203.252 410.594 203.825C410.594 204.293 410.49 204.71 410.23 204.97C409.917 205.335 409.605 205.595 409.189 205.751C408.928 205.907 408.616 205.959 408.356 205.959C408.199 205.959 408.043 205.959 407.887 205.959C407.627 205.959 407.471 205.855 407.262 206.063C407.054 206.22 406.95 206.428 406.95 206.636V207.573C406.95 207.99 407.314 208.25 407.679 208.25H408.98C409.553 208.25 409.553 208.25 410.178 208.25H414.863C415.54 208.25 415.8 208.25 416.425 208.25C417.049 208.25 417.049 208.146 417.674 208.146H423.244C423.661 208.146 424.077 207.833 424.077 207.469V206.324C424.077 206.324 423.921 205.907 423.765 205.751C423.661 205.647 423.505 205.595 423.401 205.595C423.244 205.595 423.088 205.595 422.932 205.595C422.62 205.595 422.412 205.595 422.203 205.595C421.891 205.595 421.839 205.595 421.631 205.595C421.006 205.491 420.537 205.439 420.173 205.178C419.809 204.866 419.652 204.398 419.6 203.773V202.628C419.6 202.055 419.6 202.055 419.6 201.482V200.337C419.6 199.764 419.704 199.764 419.704 199.192C419.704 198.619 419.704 198.619 419.704 197.994V195.704C419.704 195.131 419.704 195.131 419.704 194.558C419.704 194.194 419.965 193.882 420.381 193.882C421.058 193.882 420.537 193.882 421.318 193.882C422.099 193.882 422.359 194.558 422.62 194.975C422.776 195.287 422.932 195.704 423.192 196.016C423.349 196.328 423.505 196.641 423.713 197.005C423.869 197.318 424.181 197.63 424.39 197.942C424.598 198.255 424.91 198.567 425.119 198.879C425.275 199.244 425.483 199.504 425.743 199.868C425.952 200.181 426.108 200.493 426.316 200.805C426.524 201.17 426.732 201.43 426.941 201.743L427.617 202.628C427.826 202.992 428.138 203.252 428.294 203.513C428.554 203.825 428.711 204.189 428.971 204.398C429.179 204.71 429.439 204.97 429.7 205.283C429.856 205.491 430.064 205.751 430.272 205.907C430.585 206.22 430.897 206.532 431.209 206.74C431.574 207 431.938 207.209 432.355 207.365C432.771 207.521 433.864 207.677 434.229 207.781C434.645 207.938 435.062 208.042 435.53 208.146C435.947 208.146 436.415 208.146 436.832 208.146C437.561 208.146 437.561 208.146 438.289 208.146C439.018 208.146 439.018 208.25 439.799 208.25C440.528 208.25 440.528 208.146 441.257 208.146H442.662C442.662 208.146 443.131 207.885 443.131 207.781C443.131 207.677 443.131 207.677 443.131 207.573C443.131 207.469 443.131 207.417 443.131 207.313C443.131 207.313 443.131 207.209 443.131 207.157V207.053V207.209Z" fill="white"/>
<path fill-rule="evenodd" clip-rule="evenodd" d="M468.224 193.465C468.224 193.83 468.224 194.246 468.12 194.663C468.12 195.027 468.016 195.495 468.016 195.808C467.912 196.276 467.808 196.589 467.704 197.005C467.704 197.422 467.599 197.786 467.495 198.203C467.391 198.567 467.339 198.931 467.183 199.348C467.079 199.712 466.923 200.077 466.819 200.441C466.714 200.806 466.506 201.118 466.298 201.482C466.194 201.847 465.934 202.159 465.725 202.471C465.569 202.836 465.413 203.148 465.153 203.46C464.944 203.773 464.684 204.033 464.424 204.293C464.216 204.554 463.903 204.866 463.695 205.074C463.331 205.283 463.07 205.439 462.706 205.543C462.446 205.699 462.081 205.907 461.769 205.959C461.457 206.063 461.144 206.063 460.832 206.115H460.519L459.687 205.959C459.322 205.855 459.062 205.699 458.749 205.595C458.385 205.439 458.073 205.23 457.812 205.022L456.979 204.241C456.979 204.241 456.459 203.721 456.303 203.408C456.094 203.096 455.834 202.784 455.678 202.471C455.47 202.159 455.314 201.847 455.105 201.482C455.001 201.118 454.793 200.805 454.637 200.389C454.533 200.025 454.429 199.712 454.22 199.296C454.116 198.931 453.908 198.567 453.856 198.203C453.752 197.838 453.752 197.422 453.648 197.005L453.387 195.808C453.387 195.443 453.387 195.027 453.387 194.663L453.283 193.465C453.283 193.101 453.179 192.684 453.179 192.32C453.179 191.903 453.283 191.487 453.283 191.123V189.977C453.283 189.613 453.387 189.196 453.439 188.78C453.544 188.415 453.544 187.999 453.648 187.635C453.752 187.218 453.856 186.906 453.908 186.489C454.012 186.125 454.116 185.708 454.272 185.344C454.377 184.98 454.481 184.615 454.637 184.251L455.105 183.21C455.262 182.845 455.47 182.481 455.678 182.168C455.782 181.804 456.042 181.544 456.251 181.231C456.459 180.919 456.771 180.659 456.979 180.398C457.292 180.138 457.5 179.826 457.76 179.618C458.073 179.357 458.385 179.149 458.697 178.993C459.01 178.837 459.322 178.68 459.687 178.576C459.999 178.576 460.259 178.42 460.519 178.42H460.78C461.092 178.42 461.457 178.576 461.717 178.576C462.029 178.628 462.394 178.837 462.654 178.993C463.018 179.097 463.279 179.357 463.591 179.618C463.799 179.826 464.164 180.034 464.372 180.346C464.632 180.607 464.84 180.867 465.101 181.179C465.309 181.492 465.465 181.804 465.673 182.168C465.882 182.481 466.038 182.793 466.194 183.158L466.714 184.199C466.819 184.563 466.975 184.927 467.079 185.344C467.183 185.708 467.287 186.073 467.391 186.489L467.652 187.635C467.652 187.999 467.86 188.415 467.964 188.78C467.964 189.196 468.068 189.561 468.068 189.977C468.068 190.394 468.068 190.758 468.068 191.123C468.068 191.487 468.172 191.903 468.172 192.32C468.172 192.684 468.224 193.101 468.172 193.465M476.502 188.728C476.397 188.363 476.45 187.947 476.345 187.583C476.241 187.166 476.033 186.854 475.981 186.437C475.825 186.073 475.669 185.708 475.564 185.292C475.408 184.928 475.252 184.563 475.096 184.199C474.888 183.834 474.679 183.47 474.523 183.105C474.315 182.741 474.055 182.429 473.847 182.168C473.586 181.804 473.43 181.492 473.17 181.179L472.441 180.242C472.077 179.93 471.816 179.618 471.504 179.357C470.567 178.576 469.63 177.952 468.537 177.431C466.61 176.598 464.528 176.077 462.498 175.817C460.415 175.609 459.01 175.817 456.927 176.025C455.782 176.182 455.209 176.598 454.116 176.962C454.012 177.015 453.96 177.015 453.804 177.067L452.711 177.587C452.346 177.795 451.982 177.952 451.669 178.16C451.305 178.368 450.941 178.576 450.628 178.785C450.316 179.045 450.056 179.357 449.795 179.618C449.483 179.878 449.171 180.138 448.91 180.45C448.546 180.763 448.286 181.023 448.025 181.335L447.297 182.325C447.088 182.637 446.932 183.001 446.724 183.366L446.203 184.407C446.047 184.823 445.735 185.136 445.579 185.5C445.474 185.865 445.37 186.229 445.214 186.645C445.058 187.01 445.006 187.374 444.902 187.791C444.746 188.207 444.746 188.572 444.642 188.936C444.537 189.353 444.537 189.717 444.485 190.133C444.485 190.498 444.329 190.914 444.277 191.331C444.277 191.695 444.277 192.112 444.277 192.476C444.277 192.892 444.277 193.309 444.277 193.673C444.277 194.038 444.277 194.454 444.381 194.871C444.485 195.235 444.485 195.704 444.537 196.016C444.642 196.485 444.642 196.849 444.746 197.213C444.85 197.63 445.058 197.942 445.162 198.359C445.266 198.723 445.37 199.088 445.527 199.504C445.683 199.868 445.891 200.233 446.099 200.545C446.255 200.962 446.412 201.326 446.568 201.638C446.776 202.003 447.036 202.315 447.244 202.628C447.453 202.992 447.765 203.304 447.973 203.565C448.234 203.877 448.494 204.241 448.806 204.45C449.067 204.762 449.327 205.074 449.639 205.335C449.899 205.647 450.784 206.22 451.097 206.48C453.439 208.458 457.604 208.875 460.624 208.875C461.092 208.875 462.862 208.718 463.331 208.718C463.747 208.718 464.164 208.614 464.528 208.562C464.944 208.458 465.465 208.25 465.882 208.146C467.704 207.573 468.901 207.105 470.463 205.855C470.775 205.647 471.087 205.439 471.4 205.178L472.285 204.293C472.597 204.033 472.857 203.721 473.118 203.408C473.378 203.096 473.586 202.784 473.794 202.471C474.003 202.107 474.211 201.795 474.419 201.43L475.044 200.389C475.2 200.025 475.356 199.66 475.46 199.244C475.617 198.931 475.773 198.515 475.877 198.203C475.981 197.838 476.189 197.474 476.241 197.057C476.345 196.641 476.345 196.224 476.397 195.86C476.502 195.443 476.502 195.079 476.606 194.663C476.658 194.298 476.658 193.882 476.71 193.517C476.762 193.153 476.71 192.736 476.71 192.32C476.71 191.903 476.71 191.539 476.71 191.123C476.71 190.706 476.554 190.342 476.554 189.925C476.554 189.561 476.449 189.144 476.397 188.728H476.502Z" fill="white"/>
<path fill-rule="evenodd" clip-rule="evenodd" d="M501.75 200.962C501.594 201.378 501.542 201.795 501.334 202.159C501.178 202.523 500.865 202.888 500.605 203.252C500.293 203.565 499.98 203.877 499.616 204.137C499.251 204.398 498.887 204.606 498.419 204.814C498.158 204.97 497.846 204.97 497.534 205.126C497.221 205.231 497.013 205.439 496.701 205.491C496.44 205.491 496.128 205.491 495.816 205.491H495.711C495.347 205.491 495.399 205.595 495.243 205.595C495.243 205.595 495.139 205.595 494.931 205.595C494.41 205.439 493.994 204.71 493.994 204.189C493.994 204.085 493.994 203.929 493.994 203.773C493.994 203.148 493.994 203.148 493.994 202.576V198.827C493.994 198.203 493.994 198.203 493.994 197.63V196.433C493.994 195.808 493.994 195.808 493.994 195.183C493.994 194.558 493.994 194.559 493.994 193.986C493.994 193.517 494.358 193.153 494.826 193.153H496.701C497.013 193.153 497.325 193.153 497.586 193.153C498.106 193.205 498.575 193.361 499.043 193.569C499.46 193.726 499.72 193.934 500.032 194.246C500.345 194.506 500.657 194.819 500.813 195.131C501.022 195.496 501.178 195.808 501.282 196.276C501.386 196.641 501.49 196.953 501.542 197.422C501.646 197.786 501.698 198.151 501.698 198.567C501.698 198.931 501.802 199.348 501.802 199.764C501.802 200.233 501.698 200.701 501.698 201.066M493.889 189.769V188.363C493.889 187.739 493.889 187.739 493.889 187.062V185.813C493.889 185.136 493.889 185.136 493.889 184.511C493.889 183.886 493.889 183.834 493.889 183.314V182.012C493.889 181.075 493.785 180.242 494.462 179.461C494.826 179.045 495.295 178.993 495.868 178.993H496.024C496.388 178.993 495.92 178.993 496.232 179.097C496.909 179.201 497.638 179.357 498.054 179.878C498.262 180.086 498.419 180.346 498.627 180.555C499.252 181.179 499.46 181.856 499.616 182.741C499.72 183.106 499.772 183.47 499.824 183.834C499.824 184.199 499.928 184.563 499.928 185.032C499.928 185.5 499.824 185.917 499.772 186.333C499.668 186.802 499.512 187.218 499.304 187.583C499.147 187.999 498.939 188.468 498.679 188.78C498.366 189.144 498.054 189.457 497.638 189.717C497.221 189.977 497.377 190.186 496.857 190.29C496.388 190.498 496.701 190.498 496.128 190.498C495.607 190.498 495.607 190.498 494.983 190.498H494.774C494.358 190.498 493.941 190.186 493.837 189.821L493.889 189.769ZM510.028 196.641C509.871 196.224 509.819 195.86 509.611 195.496C509.455 195.131 509.247 194.819 508.934 194.506C508.726 194.194 508.518 193.83 508.206 193.569C507.893 193.309 507.581 193.049 507.269 192.841C506.904 192.58 506.592 192.372 506.227 192.164C505.863 192.008 505.447 191.851 505.082 191.747C504.457 191.487 504.353 190.654 504.874 190.29C505.238 190.029 505.551 189.821 505.863 189.561C506.175 189.248 506.384 188.936 506.696 188.624C506.904 188.311 507.06 187.999 507.269 187.583C507.425 187.218 507.685 186.906 507.789 186.489C507.945 186.125 507.997 185.761 508.049 185.292C508.049 184.928 508.049 184.511 508.049 184.095C508.049 183.678 508.049 183.366 508.049 183.001C508.049 182.637 507.893 182.273 507.789 181.908C507.685 181.544 507.581 181.179 507.373 180.815C507.217 180.503 507.06 180.138 506.852 179.826C506.592 179.513 506.332 179.253 506.019 178.993C505.707 178.681 505.394 178.524 505.082 178.316C504.718 178.056 504.457 177.848 504.041 177.691C503.677 177.483 503.312 177.327 502.948 177.223C502.531 177.067 502.271 176.963 501.854 176.858L500.761 176.598C500.293 176.598 499.095 176.494 498.783 176.442C498.054 176.442 497.586 176.546 497.586 176.546C496.961 176.546 496.961 176.546 496.336 176.546H493.317C492.692 176.546 492.692 176.546 492.067 176.546C491.443 176.546 491.443 176.442 490.87 176.442H487.122C486.497 176.442 485.977 176.546 485.404 176.546C484.779 176.546 484.779 176.546 484.206 176.546C483.582 176.546 483.582 176.546 482.905 176.546C482.436 176.546 482.02 176.859 482.02 177.327V178.004C482.02 178.004 482.176 178.472 482.384 178.681C482.645 178.837 482.905 178.785 483.269 178.785C483.582 178.785 483.842 178.889 484.206 178.941C484.519 179.045 484.831 179.253 485.092 179.514C485.508 179.878 485.768 180.399 485.768 181.075C485.768 181.7 485.768 181.7 485.768 182.325V184.771C485.768 185.396 485.768 185.396 485.768 186.021C485.768 186.646 485.872 186.646 485.872 187.27C485.872 187.843 485.768 187.843 485.768 188.468C485.768 189.144 485.872 189.092 485.872 189.717C485.872 190.394 485.872 190.342 485.872 190.966V192.216C485.872 192.841 485.872 192.841 485.872 193.413C485.872 194.09 485.768 194.09 485.768 194.663V195.912C485.768 196.537 485.768 196.537 485.768 197.161V198.359C485.768 198.983 485.768 198.984 485.768 199.608C485.768 200.233 485.872 200.233 485.872 200.858C485.872 201.482 485.872 201.482 485.872 202.107C485.872 202.732 485.768 202.732 485.768 203.356C485.768 203.981 485.664 204.45 485.248 204.814C484.935 205.074 484.623 205.283 484.311 205.387C484.05 205.387 483.842 205.491 483.582 205.491C483.322 205.491 483.061 205.491 482.853 205.491C482.437 205.595 482.176 205.907 482.176 206.324C482.176 206.74 482.176 206.74 482.176 207.209C482.176 207.677 482.541 208.094 483.009 208.094C483.686 208.094 483.686 208.146 484.363 208.146C485.039 208.146 485.039 208.042 485.664 208.042C486.341 208.042 486.809 208.146 487.486 208.146H490.037C490.714 208.146 490.714 207.99 491.391 207.99C492.015 207.99 492.015 208.146 492.744 208.146C493.369 208.146 493.369 207.99 494.046 207.99C494.67 207.99 494.67 207.99 495.399 207.99C496.024 207.99 496.544 208.094 497.221 208.094C497.846 208.094 497.846 207.938 498.523 207.938C498.991 207.938 499.46 207.938 499.928 207.938C500.397 207.938 501.542 207.833 501.959 207.781C502.427 207.677 502.792 207.625 503.26 207.469C503.729 207.313 504.145 207.209 504.562 207.001C504.978 206.844 505.238 206.584 505.655 206.376C506.019 206.22 506.488 206.064 506.8 205.855C507.164 205.647 507.477 205.387 507.841 205.126C508.154 204.866 508.466 204.554 508.778 204.241C509.039 203.929 509.195 203.565 509.455 203.252C509.663 202.888 509.819 202.576 509.976 202.159C510.132 201.795 510.392 201.43 510.444 201.014C510.548 200.649 510.6 200.285 510.652 199.816C510.757 199.452 510.652 199.036 510.652 198.671C510.652 198.255 510.652 197.838 510.652 197.474C510.652 197.057 510.444 196.693 510.34 196.328L510.028 196.641Z" fill="white"/>
<path fill-rule="evenodd" clip-rule="evenodd" d="M529.758 194.038C529.133 194.142 529.133 194.142 528.456 194.142H527.779C527.155 194.142 527.103 194.038 526.478 194.038C525.853 194.038 525.853 194.038 525.28 194.038C524.656 194.038 524.656 194.038 523.979 194.038C523.302 194.038 522.938 193.517 523.094 192.945C523.302 192.424 523.406 192.476 523.667 191.903C523.823 191.383 523.771 191.331 523.979 190.81C524.135 190.29 524.187 190.29 524.448 189.769C524.656 189.196 524.708 189.248 524.916 188.728C525.02 188.346 525.159 187.982 525.333 187.635L525.749 186.541C525.905 186.177 525.957 186.021 526.322 186.021C526.634 186.021 526.686 186.125 526.842 186.489C527.102 187.114 527.05 187.114 527.259 187.739C527.467 188.363 527.415 188.363 527.675 188.936C527.849 189.353 528.005 189.752 528.144 190.133C528.352 190.758 528.456 190.706 528.716 191.331L529.133 192.58C529.341 193.205 529.393 193.153 529.653 193.778C529.653 193.882 529.862 193.986 529.758 193.986M545.271 205.543C545.271 205.543 545.063 205.439 544.959 205.387C544.594 205.074 544.282 204.658 544.022 204.293C543.813 203.981 543.553 203.773 543.397 203.513C543.241 203.2 543.137 202.836 543.032 202.575C543.032 202.575 542.928 202.107 542.616 201.43C542.512 201.066 542.304 200.701 542.148 200.233L541.679 199.036C541.575 198.671 541.367 198.307 541.263 197.89C541.106 197.526 540.846 197.161 540.69 196.745C540.586 196.38 540.43 195.964 540.273 195.548C540.117 195.183 540.013 194.767 539.857 194.35C539.701 193.986 539.597 193.569 539.441 193.153C539.284 192.736 539.076 192.424 538.92 192.008C538.712 191.643 538.608 191.175 538.451 190.81C538.295 190.446 538.139 190.081 537.983 189.665C537.827 189.248 537.67 188.832 537.566 188.468C537.41 188.103 537.202 187.687 536.994 187.27C536.89 186.906 536.681 186.489 536.577 186.125C536.421 185.761 536.369 185.344 536.109 184.98C536.005 184.563 535.744 184.199 535.64 183.782C535.484 183.418 535.328 183.001 535.224 182.637C535.12 182.273 534.911 181.856 534.755 181.44C534.599 181.075 534.443 180.659 534.339 180.242C534.183 179.878 533.87 179.513 533.714 179.149L533.298 177.952C533.141 177.535 532.985 177.067 532.881 176.754C532.725 176.338 532.204 176.13 531.736 176.338C530.903 176.702 527.988 176.702 527.155 177.015C526.894 177.119 526.686 177.223 526.634 177.379C526.374 178.004 526.426 178.004 526.165 178.576C525.905 179.201 525.957 179.201 525.749 179.774C525.541 180.398 525.593 180.398 525.333 180.971L524.864 182.116C524.604 182.741 524.552 182.689 524.343 183.262C524.135 183.782 524.135 183.782 523.927 184.407C523.753 184.789 523.597 185.188 523.458 185.604C523.25 186.177 523.302 186.177 522.99 186.802C522.782 187.374 522.73 187.374 522.521 187.947C522.313 188.572 522.261 188.52 522.001 189.144C521.793 189.717 521.897 189.769 521.636 190.342C521.376 190.914 521.324 190.914 521.116 191.487C520.908 192.06 520.855 192.06 520.647 192.632C520.387 193.205 520.335 193.205 520.127 193.778C519.918 194.402 519.97 194.402 519.762 194.975C519.554 195.548 519.502 195.548 519.294 196.12C519.033 196.745 519.138 196.745 518.877 197.318C518.669 197.89 518.617 197.89 518.409 198.411C518.2 198.827 518.027 199.226 517.888 199.608C517.68 200.233 517.628 200.181 517.368 200.753C517.159 201.326 517.211 201.378 517.003 201.899C516.795 202.523 516.743 202.523 516.483 203.044C516.483 203.096 516.483 203.096 516.378 203.148C516.222 203.513 515.962 203.825 515.754 204.085C515.441 204.45 515.181 204.71 514.973 204.918C514.556 205.178 514.244 205.439 513.723 205.543C513.307 205.543 512.838 205.855 512.838 206.324C512.838 206.74 512.838 206.74 512.838 207.157C512.838 207.573 513.255 207.938 513.775 207.938H515.025C515.65 207.938 515.65 207.938 516.274 207.938C516.899 207.938 516.899 208.042 517.524 208.042H521.324C521.949 208.042 521.949 207.938 522.625 207.938C523.094 207.938 523.51 207.625 523.51 207.209C523.51 206.792 523.51 206.74 523.51 206.376C523.51 206.116 523.354 205.855 523.198 205.751C522.886 205.543 522.678 205.595 522.365 205.595C522.001 205.595 521.74 205.439 521.376 205.439C521.012 205.335 520.699 205.283 520.283 205.022C519.97 204.814 519.71 204.606 519.606 204.189C519.502 203.877 519.502 203.617 519.502 203.252C519.502 202.836 519.502 202.523 519.71 202.107C519.918 201.743 519.97 201.378 520.127 201.014C520.335 200.389 520.491 200.441 520.751 199.816C521.012 199.192 520.96 199.192 521.168 198.567C521.428 197.942 521.324 197.942 521.636 197.37C521.688 197.213 521.74 197.213 521.793 197.005C521.949 196.641 522.261 196.433 522.573 196.433C523.25 196.433 523.198 196.537 523.771 196.537C524.395 196.537 524.395 196.537 525.02 196.537H526.218C526.842 196.537 526.842 196.433 527.467 196.433C528.092 196.433 528.092 196.537 528.664 196.537C529.237 196.537 528.664 196.537 529.289 196.537C529.914 196.537 529.914 196.537 530.486 196.537C530.851 196.537 531.215 196.745 531.371 197.057C531.51 197.439 531.632 197.803 531.736 198.151C531.84 198.498 531.996 198.862 532.204 199.244C532.413 199.625 532.534 199.99 532.569 200.337C532.673 200.649 532.725 200.962 532.881 201.222C533.037 201.638 533.298 201.951 533.454 202.419C533.61 202.888 533.662 203.356 533.662 203.877C533.662 204.293 533.662 204.762 533.402 205.074C533.141 205.387 532.725 205.595 532.256 205.699C531.84 205.699 531.423 205.491 531.059 205.699C530.799 205.855 530.643 206.116 530.643 206.428V207.261C530.643 207.677 531.007 208.146 531.476 208.146C532.204 208.146 532.204 208.094 532.829 208.094C533.558 208.094 533.558 208.094 534.235 208.094C534.911 208.094 534.911 208.094 535.64 208.094C536.369 208.094 536.317 208.198 536.942 208.198C537.618 208.198 538.191 208.094 538.92 208.094C539.649 208.094 539.597 208.094 540.325 208.094C541.054 208.094 541.002 208.198 541.679 208.198H546.052C546.52 208.198 546.833 207.781 546.833 207.365C546.833 206.948 546.937 206.948 546.937 206.584C546.937 206.272 546.781 206.011 546.521 205.855C546.208 205.699 545.896 205.699 545.635 205.595L545.271 205.543Z" fill="white"/>
<path fill-rule="evenodd" clip-rule="evenodd" d="M571.406 186.385C571.406 186.802 571.249 187.166 571.145 187.53C571.041 187.999 570.729 188.415 570.573 188.884C570.416 189.248 570.208 189.769 569.896 190.081C569.531 190.446 569.323 190.706 568.907 190.81C568.49 190.966 568.126 191.123 567.761 191.227C567.189 191.331 566.824 191.331 566.564 191.331C565.939 191.331 565.471 191.331 564.846 191.331C564.43 191.331 564.117 190.966 564.117 190.602C564.117 189.977 564.117 189.977 564.117 189.353C564.117 188.728 564.221 188.728 564.221 188.155C564.221 187.583 564.221 187.53 564.221 186.958C564.221 186.333 564.221 186.333 564.221 185.76C564.221 185.188 564.221 185.136 564.221 184.511V183.314C564.221 182.689 564.117 182.689 564.221 182.116C564.221 181.492 564.326 181.492 564.326 180.919C564.326 180.346 564.482 179.93 564.742 179.67C565.054 179.357 565.471 179.253 566.096 179.149C566.564 179.149 566.356 179.045 566.929 179.045C567.293 179.045 566.928 179.045 567.293 179.045C567.709 179.045 567.553 179.045 567.918 179.149C568.282 179.253 568.594 179.357 568.959 179.513C569.271 179.722 569.583 179.982 569.844 180.242C570.104 180.503 570.521 180.815 570.729 181.283C570.885 181.648 570.989 182.116 571.197 182.585L571.458 183.938C571.458 184.355 571.562 184.771 571.562 185.344C571.562 185.76 571.562 186.125 571.562 186.489M587.856 207.209C587.856 207.209 587.856 207.053 587.856 207C587.856 206.896 587.856 206.688 587.856 206.584C587.856 206.48 587.856 206.48 587.7 206.428C587.7 206.324 587.596 206.324 587.544 206.272C587.44 206.272 587.388 206.272 587.283 206.272L587.023 206.168C587.023 206.168 586.919 206.168 586.867 206.168H586.763C586.659 206.168 586.607 206.168 586.555 206.168L585.982 206.011C585.982 206.011 585.618 206.011 585.513 206.011C585.097 206.011 584.837 205.803 584.472 205.647C584.108 205.491 583.743 205.23 583.379 204.97C583.067 204.762 582.65 204.502 582.338 204.293C581.973 203.981 581.765 203.617 581.505 203.304C581.193 202.992 580.88 202.732 580.568 202.419C580.256 202.055 580.099 201.69 579.839 201.378C579.631 201.118 579.371 200.858 579.214 200.545C579.006 200.285 578.746 200.077 578.59 199.764C578.329 199.4 578.017 199.088 577.809 198.723C577.548 198.307 577.392 197.942 577.132 197.578C576.872 197.213 576.663 196.901 576.403 196.485C576.143 196.12 575.935 195.808 575.622 195.391C575.414 195.027 574.893 193.986 574.685 193.673C574.477 193.309 575.05 193.309 575.102 193.153C575.466 192.997 575.726 192.788 576.039 192.58C576.455 192.424 576.82 192.216 577.184 192.008C577.496 191.799 577.705 191.435 578.069 191.175L578.954 190.342C579.162 190.029 579.318 189.717 579.579 189.353C579.735 188.988 579.995 188.728 580.151 188.363C580.308 187.999 580.412 187.635 580.516 187.218C580.62 186.802 580.62 186.437 580.672 186.021C580.672 185.656 580.776 185.292 580.776 184.875C580.776 184.459 580.776 184.095 580.672 183.678C580.672 183.314 580.516 182.949 580.308 182.533C580.203 182.168 580.151 181.804 579.943 181.44C579.787 181.075 579.579 180.763 579.266 180.45C579.058 180.138 578.85 179.826 578.486 179.565C578.173 179.305 577.809 179.097 577.444 178.837C577.08 178.628 576.663 178.42 576.299 178.212C575.883 178.056 575.518 177.795 575.102 177.691C574.737 177.535 574.269 177.379 573.904 177.275C573.488 177.171 571.822 176.963 571.406 176.91C570.989 176.806 570.521 176.754 570.156 176.702C569.636 176.702 568.49 176.702 568.074 176.702C567.345 176.702 566.824 176.702 566.772 176.702H564.326C563.649 176.702 563.388 176.702 562.764 176.702C562.347 176.702 561.913 176.702 561.462 176.702H560.109C559.484 176.702 557.037 176.806 556.361 176.806H555.007C554.382 176.806 554.382 176.65 553.706 176.65C553.081 176.65 553.081 176.754 552.352 176.754C551.936 176.754 551.623 177.067 551.623 177.431C551.623 177.9 551.519 177.9 551.519 178.316C551.519 178.524 551.623 178.733 551.831 178.837C551.988 178.889 552.196 178.889 552.3 178.941C552.612 179.045 552.664 179.045 552.925 179.045C553.133 179.045 553.393 179.045 553.601 179.149C553.966 179.253 554.278 179.409 554.59 179.67C554.799 179.878 554.955 180.19 555.111 180.555C555.163 180.815 555.267 180.919 555.267 181.127C555.267 181.752 555.267 181.752 555.267 182.325V183.522C555.267 184.095 555.371 184.095 555.371 184.667C555.371 185.292 555.371 185.292 555.371 185.865C555.371 186.437 555.267 186.489 555.267 187.062C555.267 187.635 555.371 187.635 555.371 188.259V189.457C555.371 190.081 555.371 190.081 555.371 190.654C555.371 191.279 555.267 191.279 555.267 191.851C555.267 192.424 555.371 192.476 555.371 192.997V194.194C555.371 194.819 555.371 194.819 555.371 195.391C555.371 195.964 555.267 196.016 555.267 196.589C555.267 197.161 555.267 197.213 555.267 197.786C555.267 198.359 555.267 198.411 555.267 198.983V201.43C555.267 202.055 555.267 202.055 555.267 202.628C555.267 203.2 555.267 203.252 555.267 203.825C555.267 204.293 555.163 204.71 554.851 204.97C554.538 205.335 554.226 205.595 553.81 205.751C553.549 205.907 553.237 205.959 552.977 205.959C552.873 205.959 552.664 205.959 552.508 205.959C552.248 205.959 552.092 205.855 551.831 206.063C551.623 206.22 551.519 206.428 551.519 206.636V207.573C551.519 207.99 551.883 208.25 552.248 208.25H553.549C554.122 208.25 554.122 208.25 554.747 208.25H559.432C560.057 208.25 560.369 208.25 560.994 208.25C561.619 208.25 561.618 208.146 562.243 208.146H567.813C568.23 208.146 568.646 207.833 568.646 207.469V206.324C568.646 206.324 568.542 205.907 568.334 205.751C568.23 205.647 568.074 205.595 567.97 205.595C567.813 205.595 567.657 205.595 567.501 205.595C567.189 205.595 566.981 205.595 566.772 205.595C566.46 205.595 566.408 205.595 566.2 205.595C565.575 205.491 565.106 205.439 564.794 205.178C564.43 204.866 564.273 204.398 564.221 203.773V202.628C564.221 202.055 564.221 202.055 564.221 201.482V200.337C564.221 199.764 564.326 199.764 564.326 199.192C564.326 198.619 564.326 198.619 564.326 197.994V195.704C564.326 195.131 564.326 195.131 564.326 194.558C564.326 194.194 564.586 193.882 565.054 193.882C565.731 193.882 565.211 193.882 565.939 193.882C566.668 193.882 566.981 194.558 567.241 194.975C567.397 195.287 567.553 195.704 567.813 196.016C567.97 196.328 568.126 196.641 568.334 197.005C568.49 197.318 568.803 197.63 568.959 197.942C569.167 198.255 569.479 198.567 569.688 198.879C569.844 199.244 570.052 199.504 570.312 199.868C570.521 200.181 570.677 200.493 570.885 200.805C571.093 201.17 571.301 201.43 571.562 201.743L572.238 202.628C572.447 202.992 572.759 203.252 572.915 203.513C573.176 203.825 573.332 204.189 573.592 204.398C573.8 204.71 574.061 204.97 574.321 205.283C574.477 205.491 574.685 205.751 574.894 205.907C575.206 206.22 575.466 206.532 575.831 206.74C576.247 207 576.559 207.209 576.976 207.365C577.392 207.521 578.433 207.677 578.85 207.781C579.266 207.938 579.683 208.042 580.151 208.146C580.568 208.146 581.036 208.146 581.453 208.146C582.182 208.146 582.182 208.146 582.911 208.146C583.639 208.146 583.639 208.25 584.42 208.25C585.149 208.25 585.149 208.146 585.878 208.146H587.336C587.336 208.146 587.804 207.885 587.804 207.781C587.804 207.677 587.804 207.677 587.804 207.573C587.804 207.469 587.804 207.417 587.804 207.313C587.804 207.313 587.804 207.209 587.804 207.157V207.053L587.856 207.209Z" fill="white"/>
<path fill-rule="evenodd" clip-rule="evenodd" d="M621.173 191.279V191.175C621.017 190.758 620.704 190.446 620.236 190.342C620.027 190.238 619.767 190.238 619.507 190.186C618.882 190.186 618.205 190.186 617.581 190.186C616.956 190.186 616.279 190.081 615.55 190.081C614.613 190.081 613.676 190.394 612.739 190.394C610.865 190.394 609.043 190.394 607.169 190.394C606.44 190.394 605.763 190.394 604.982 190.238C604.358 190.133 604.15 190.602 603.993 191.123C603.837 191.487 603.837 191.747 603.837 192.008V193.101C603.837 193.101 603.837 193.465 603.837 193.621C603.889 193.778 603.889 193.986 603.889 194.35V194.559C603.889 194.819 603.889 194.923 603.993 195.079C604.306 196.016 605.035 195.756 605.659 195.808C606.44 195.912 607.221 196.016 608.002 196.016C608.627 196.016 609.199 195.912 609.824 195.912C610.449 195.86 610.969 196.016 611.542 196.016C613.78 196.12 615.967 195.808 618.153 196.016C618.778 196.016 619.403 196.172 620.08 196.12C620.704 196.12 621.017 195.808 621.277 195.183C621.381 194.975 621.381 194.819 621.381 194.454V192.112C621.381 192.112 621.277 191.695 621.225 191.435" fill="white"/>
</svg>
