<svg width="35" height="21" viewBox="0 0 35 21" fill="none" xmlns="http://www.w3.org/2000/svg">
<path d="M29.0437 12.042C28.4779 11.307 28.6397 10.98 29.0437 10.323C29.051 10.3155 33.7222 3.6765 34.2035 1.425L34.2064 1.4235C34.4456 0.603 34.2064 0 33.0499 0H29.2231C28.2489 0 27.7997 0.5175 27.5591 1.0965C27.5591 1.0965 25.6107 5.8935 22.8543 9.003C21.9647 9.9015 21.5535 10.1895 21.0678 10.1895C20.8286 10.1895 20.4568 9.9015 20.4568 9.081V1.4235C20.4568 0.4395 20.184 0 19.3775 0H13.3603C12.7492 0 12.3861 0.459 12.3861 0.8865C12.3861 1.8195 13.7642 2.034 13.9071 4.659V10.3545C13.9071 11.6025 13.6869 11.832 13.1984 11.832C11.8975 11.832 8.7401 7.0155 6.86899 1.503C6.49127 0.4335 6.1223 0.00149989 5.1408 0.00149989H1.31255C0.220216 0.00149989 0 0.519 0 1.098C0 2.121 1.30088 7.2075 6.04938 13.9275C9.21407 18.5145 13.6709 21 17.7252 21C20.1622 21 20.4597 20.448 20.4597 19.4985C20.4597 15.1155 20.2395 14.7015 21.4601 14.7015C22.026 14.7015 23.0002 14.9895 25.2753 17.202C27.8755 19.8255 28.3029 21 29.7583 21H33.5851C34.676 21 35.2287 20.448 34.9108 19.359C34.1831 17.0685 29.2654 12.357 29.0437 12.042Z" fill="#FBBB1F"/>
</svg>
